<svg width="60" height="60" viewBox="0 0 60 60" fill="none" xmlns="http://www.w3.org/2000/svg">
<path d="M38.9719 18.9326H21.0282C20.2729 18.9334 19.5486 19.2146 19.0144 19.7147C18.4801 20.2146 18.1795 20.8924 18.1782 21.5996V38.399C18.1791 39.1063 18.4798 39.7843 19.014 40.2843C19.5484 40.7844 20.2727 41.0655 21.0282 41.0661H38.9719C39.7274 41.0655 40.4519 40.7844 40.9861 40.2843C41.5204 39.7843 41.821 39.1063 41.8219 38.399V21.5996C41.8208 20.8924 41.52 20.2146 40.9858 19.7147C40.4515 19.2146 39.7274 18.9334 38.9719 18.9326ZM40.254 38.399C40.2522 38.7168 40.1165 39.0211 39.8765 39.2458C39.6364 39.4705 39.3114 39.5975 38.9719 39.5993H21.0282C20.6888 39.5975 20.3638 39.4705 20.1238 39.2458C19.8838 39.0211 19.7481 38.7168 19.7461 38.399V21.5996C19.7481 21.2818 19.8838 20.9775 20.1238 20.7528C20.3638 20.5281 20.6888 20.4011 21.0282 20.3994H38.9719C39.3114 20.4011 39.6364 20.5281 39.8765 20.7528C40.1165 20.9775 40.2522 21.2818 40.254 21.5996V38.399Z" fill="#3F6212"/>
<path d="M30.4837 32.3375C30.5123 32.3169 30.5382 32.2933 30.5611 32.2673C30.6774 32.1469 30.742 31.9907 30.7427 31.8284C30.7421 31.6741 30.6909 31.5237 30.5963 31.3973C30.4915 31.2547 30.3342 31.1535 30.1545 31.1131L30.1228 31.1066L29.3025 28.7545C29.1149 28.2322 28.9486 27.7568 28.8033 27.3283C28.6471 26.8894 28.4986 26.5124 28.3579 26.1972C28.2361 25.9188 28.0767 25.6563 27.8834 25.4161C27.6138 25.1001 27.3278 25.0332 27.1346 25.0332C26.8626 25.0332 26.6131 25.1637 26.3904 25.4204C26.1943 25.6638 26.0307 25.9287 25.9029 26.2092C25.7505 26.5245 25.5943 26.8972 25.4341 27.3271C25.2739 27.7572 25.1095 28.2198 24.9407 28.7149L23.0751 34.1312C23.063 34.186 23.0567 34.2419 23.0563 34.298C23.0539 34.3945 23.0755 34.4904 23.1194 34.5777C23.1633 34.6651 23.2284 34.7417 23.3095 34.8015C23.444 34.8978 23.609 34.9495 23.7783 34.9485C23.9868 34.9485 24.2904 34.8761 24.5517 34.5316C24.5774 34.4985 24.5964 34.4614 24.6079 34.4219L25.2454 32.4758H28.9217L29.4701 34.4976C29.5319 34.6259 29.6328 34.7342 29.7603 34.8087C29.8877 34.8833 30.0359 34.9209 30.1861 34.9167C30.6548 34.9167 30.9677 34.6545 31.0063 34.2344C31.0109 34.1909 31.0066 34.1468 30.9934 34.1048L30.4837 32.3375ZM27.4088 28.2783C27.5353 28.6192 27.6646 28.9738 27.7966 29.3425L28.1868 30.4494C28.2536 30.6392 28.3158 30.8236 28.3755 30.998H25.781L27.0818 27.3941C27.1803 27.664 27.2868 27.958 27.4088 28.2805V28.2783Z" fill="#3F6212"/>
<path d="M35.0274 31.7004C35.047 31.2045 35.0661 30.6798 35.0849 30.1261L35.1786 27.1498C35.1841 26.9238 35.1888 26.7273 35.1928 26.5606L35.3826 26.5672C35.665 26.5771 35.9122 26.5902 36.122 26.6045C36.5486 26.6242 36.8826 26.3927 36.9423 25.9189C36.9451 25.7413 36.8796 25.5687 36.7579 25.4326C36.6361 25.2965 36.4662 25.2059 36.279 25.1772C36.1618 25.1618 35.986 25.1442 35.7423 25.1256C35.6498 25.1179 35.3685 25.096 33.074 25.1509C32.2642 25.1311 31.4919 25.1838 31.3536 25.6994C31.2365 26.1536 31.4005 26.3784 31.5634 26.486C31.7376 26.6012 31.9522 26.6498 32.1634 26.622C32.2964 26.6069 32.4302 26.5988 32.5642 26.5979L33.3529 26.5869H33.6353C33.6353 26.6528 33.6353 26.724 33.6353 26.8063C33.6353 27.0587 33.6275 27.3512 33.6118 27.684L33.4946 30.7767C33.4548 31.7015 33.429 32.3839 33.4138 32.8194C33.4044 33.0739 33.3962 33.2967 33.3869 33.4864C32.6923 33.4754 32.2447 33.4699 32.0439 33.4699C31.8883 33.4702 31.7352 33.508 31.5998 33.5797C31.4532 33.6554 31.2786 33.821 31.2786 34.1634C31.2693 34.3554 31.3396 34.7053 31.9068 34.8875C31.9446 34.8992 31.984 34.9058 32.024 34.9071L36.1337 34.973C36.2297 34.9777 36.3257 34.9646 36.4164 34.9342C36.5069 34.9039 36.5901 34.8572 36.6611 34.7966C36.7322 34.7359 36.7898 34.6626 36.8304 34.5811C36.871 34.4995 36.8939 34.4113 36.8978 34.3213C36.9107 34.2252 36.9024 34.1275 36.8734 34.0344C36.8444 33.9415 36.7953 33.8549 36.729 33.7804C36.6458 33.6988 36.5453 33.6342 36.4339 33.5909C36.3225 33.5477 36.2027 33.5267 36.0822 33.5293L34.9337 33.5138C34.9478 33.3734 34.9595 33.2122 34.9688 33.03C34.9888 32.6383 35.0087 32.1941 35.0274 31.7004Z" fill="#3F6212"/>
<path d="M50.4197 27.5952C50.6277 27.5952 50.8271 27.518 50.9741 27.3804C51.1211 27.2426 51.2037 27.056 51.2037 26.8613C51.2037 26.6666 51.1211 26.48 50.9741 26.3424C50.8271 26.2047 50.6277 26.1274 50.4197 26.1274H45.7123V21.319H50.4197C50.5227 21.319 50.6246 21.2999 50.7197 21.263C50.8148 21.2261 50.9012 21.1721 50.9741 21.104C51.0469 21.0358 51.1046 20.9549 51.1441 20.8659C51.1835 20.7768 51.2037 20.6813 51.2037 20.5849C51.2037 20.4885 51.1835 20.3932 51.1441 20.3041C51.1046 20.2151 51.0469 20.1341 50.9741 20.066C50.9012 19.9978 50.8148 19.9438 50.7197 19.9069C50.6246 19.87 50.5227 19.851 50.4197 19.851H45.6467C45.5016 18.7051 44.9487 17.6383 44.0772 16.8224C43.2055 16.0064 42.0661 15.4889 40.8421 15.353V10.8846C40.8421 10.69 40.7595 10.5033 40.6124 10.3656C40.4653 10.228 40.2659 10.1507 40.058 10.1507C39.8501 10.1507 39.6507 10.228 39.5037 10.3656C39.3566 10.5033 39.274 10.69 39.274 10.8846V15.2893H34.1353V10.8846C34.1394 10.7859 34.1222 10.6875 34.0847 10.5952C34.0471 10.5029 33.9901 10.4186 33.9169 10.3474C33.8438 10.2762 33.7561 10.2196 33.659 10.1809C33.5619 10.1423 33.4575 10.1223 33.352 10.1223C33.2464 10.1223 33.142 10.1423 33.045 10.1809C32.9478 10.2196 32.8601 10.2762 32.787 10.3474C32.7138 10.4186 32.6568 10.5029 32.6193 10.5952C32.5817 10.6875 32.5645 10.7859 32.5686 10.8846V15.2893H27.431V10.8846C27.4351 10.7859 27.4179 10.6875 27.3804 10.5952C27.3428 10.5029 27.2858 10.4186 27.2126 10.3474C27.1395 10.2762 27.0518 10.2196 26.9547 10.1809C26.8576 10.1423 26.7532 10.1223 26.6477 10.1223C26.5421 10.1223 26.4377 10.1423 26.3407 10.1809C26.2435 10.2196 26.1558 10.2762 26.0827 10.3474C26.0095 10.4186 25.9525 10.5029 25.915 10.5952C25.8774 10.6875 25.8602 10.7859 25.8643 10.8846V15.2893H20.7267V10.8846C20.7267 10.7882 20.7064 10.6928 20.6671 10.6038C20.6277 10.5147 20.57 10.4338 20.4972 10.3656C20.4243 10.2975 20.3379 10.2434 20.2428 10.2066C20.1477 10.1697 20.0458 10.1507 19.9428 10.1507C19.8399 10.1507 19.7379 10.1697 19.6428 10.2066C19.5477 10.2434 19.4613 10.2975 19.3885 10.3656C19.3156 10.4338 19.2579 10.5147 19.2184 10.6038C19.1791 10.6928 19.1588 10.7882 19.1588 10.8846V15.3509C17.9348 15.4867 16.7952 16.0042 15.9237 16.8202C15.0521 17.6361 14.4993 18.703 14.3541 19.8488H9.5799C9.37198 19.8488 9.17258 19.9262 9.02555 20.0638C8.87853 20.2014 8.79592 20.3881 8.79592 20.5827C8.79592 20.7774 8.87853 20.9641 9.02555 21.1018C9.17258 21.2394 9.37198 21.3167 9.5799 21.3167H14.2873V26.1274H9.5799C9.37198 26.1274 9.17258 26.2047 9.02555 26.3424C8.87853 26.48 8.79592 26.6666 8.79592 26.8613C8.79592 27.056 8.87853 27.2426 9.02555 27.3804C9.17258 27.518 9.37198 27.5952 9.5799 27.5952H14.2873V32.4038H9.5799C9.37198 32.4038 9.17258 32.4811 9.02555 32.6187C8.87853 32.7564 8.79592 32.943 8.79592 33.1377C8.79592 33.3324 8.87853 33.519 9.02555 33.6566C9.17258 33.7944 9.37198 33.8716 9.5799 33.8716H14.2873V38.6812H9.5799C9.47448 38.6773 9.36931 38.6935 9.27071 38.7287C9.17211 38.7638 9.08209 38.8172 9.00606 38.8857C8.93003 38.9541 8.86954 39.0363 8.82823 39.1272C8.78692 39.2181 8.76562 39.3158 8.76562 39.4146C8.76562 39.5134 8.78692 39.6112 8.82823 39.7021C8.86954 39.7928 8.93003 39.875 9.00606 39.9435C9.08209 40.012 9.17211 40.0654 9.27071 40.1005C9.36931 40.1357 9.47448 40.1518 9.5799 40.148H14.353C14.4978 41.294 15.0506 42.3608 15.9223 43.1768C16.7939 43.9928 17.9335 44.5104 19.1577 44.6459V49.1132C19.1577 49.3079 19.2403 49.4946 19.3872 49.6323C19.5343 49.7699 19.7337 49.8472 19.9416 49.8472C20.1496 49.8472 20.349 49.7699 20.4959 49.6323C20.643 49.4946 20.7256 49.3079 20.7256 49.1132V44.7096H25.8631V49.1154C25.859 49.2142 25.8763 49.3127 25.9138 49.405C25.9513 49.4973 26.0084 49.5815 26.0815 49.6527C26.1547 49.7238 26.2424 49.7805 26.3395 49.8192C26.4366 49.8579 26.541 49.8778 26.6466 49.8778C26.752 49.8778 26.8564 49.8579 26.9535 49.8192C27.0506 49.7805 27.1383 49.7238 27.2115 49.6527C27.2846 49.5815 27.3417 49.4973 27.3792 49.405C27.4167 49.3127 27.434 49.2142 27.4299 49.1154V44.7096H32.5674V49.1154C32.5633 49.2142 32.5806 49.3127 32.6181 49.405C32.6556 49.4973 32.7127 49.5815 32.7858 49.6527C32.859 49.7238 32.9467 49.7805 33.0438 49.8192C33.1409 49.8579 33.2453 49.8778 33.3509 49.8778C33.4563 49.8778 33.5607 49.8579 33.6578 49.8192C33.7549 49.7805 33.8426 49.7238 33.9158 49.6527C33.9889 49.5815 34.046 49.4973 34.0835 49.405C34.121 49.3127 34.1383 49.2142 34.1342 49.1154V44.7096H39.2717V49.1154C39.2717 49.2118 39.292 49.3073 39.3313 49.3964C39.3708 49.4854 39.4285 49.5663 39.5014 49.6345C39.5741 49.7027 39.6606 49.7567 39.7557 49.7935C39.8508 49.8304 39.9528 49.8495 40.0557 49.8495C40.1587 49.8495 40.2606 49.8304 40.3557 49.7935C40.4508 49.7567 40.5372 49.7027 40.6101 49.6345C40.6829 49.5663 40.7406 49.4854 40.78 49.3964C40.8193 49.3073 40.8396 49.2118 40.8396 49.1154V44.6482C42.0638 44.5125 43.2034 43.995 44.075 43.179C44.9467 42.3631 45.4995 41.2961 45.6444 40.1501H50.4174C50.5229 40.154 50.6281 40.1379 50.7266 40.1028C50.8252 40.0675 50.9152 40.0142 50.9912 39.9458C51.0673 39.8772 51.1277 39.7951 51.1691 39.7042C51.2104 39.6133 51.2316 39.5155 51.2316 39.4167C51.2316 39.3181 51.2104 39.2203 51.1691 39.1294C51.1277 39.0385 51.0673 38.9564 50.9912 38.8878C50.9152 38.8194 50.8252 38.7659 50.7266 38.7308C50.6281 38.6957 50.5229 38.6796 50.4174 38.6833H45.7123V33.8716H50.4197C50.6277 33.8716 50.8271 33.7944 50.9741 33.6566C51.1211 33.519 51.2037 33.3324 51.2037 33.1377C51.2037 32.943 51.1211 32.7564 50.9741 32.6187C50.8271 32.4811 50.6277 32.4038 50.4197 32.4038H45.7123V27.5952H50.4197ZM44.1455 39.5447C44.144 40.5248 43.7273 41.4645 42.9867 42.1577C42.2462 42.8508 41.2423 43.2405 40.1951 43.2417H19.8045C18.7573 43.2405 17.7535 42.8508 17.013 42.1577C16.2724 41.4645 15.8556 40.5248 15.8541 39.5447V20.4555C15.8556 19.4752 16.2723 18.5353 17.0129 17.842C17.7534 17.1488 18.7573 16.7587 19.8045 16.7573H40.1951C41.2424 16.7587 42.2463 17.1488 42.9867 17.842C43.7273 18.5353 44.144 19.4752 44.1455 20.4555V39.5447Z" fill="#3F6212"/>
</svg>
