<svg width="60" height="60" viewBox="0 0 47 44" fill="none" xmlns="http://www.w3.org/2000/svg">
<path d="M30.5279 13.3306H16.472C15.8803 13.3312 15.313 13.5515 14.8945 13.9432C14.476 14.3348 14.2405 14.8658 14.2395 15.4197V28.5793C14.2402 29.1333 14.4757 29.6644 14.8942 30.0561C15.3128 30.4478 15.8802 30.668 16.472 30.6685H30.5279C31.1197 30.668 31.6872 30.4478 32.1057 30.0561C32.5242 29.6644 32.7597 29.1333 32.7604 28.5793V15.4197C32.7595 14.8658 32.5239 14.3348 32.1054 13.9432C31.6869 13.5515 31.1197 13.3312 30.5279 13.3306ZM31.5322 28.5793C31.5308 28.8282 31.4245 29.0666 31.2365 29.2426C31.0484 29.4186 30.7938 29.5181 30.5279 29.5195H16.472C16.2061 29.5181 15.9515 29.4186 15.7635 29.2426C15.5755 29.0666 15.4692 28.8282 15.4677 28.5793V15.4197C15.4692 15.1708 15.5755 14.9324 15.7635 14.7564C15.9515 14.5804 16.2061 14.4809 16.472 14.4796H30.5279C30.7938 14.4809 31.0484 14.5804 31.2365 14.7564C31.4245 14.9324 31.5308 15.1708 31.5322 15.4197V28.5793Z" fill="#84CC16"/>
<path d="M23.879 23.8311C23.9014 23.815 23.9217 23.7965 23.9396 23.7761C24.0307 23.6818 24.0813 23.5594 24.0819 23.4323C24.0814 23.3114 24.0413 23.1936 23.9672 23.0946C23.8851 22.9829 23.7619 22.9036 23.6211 22.872L23.5963 22.8669L22.9537 21.0244C22.8068 20.6153 22.6765 20.2429 22.5627 19.9072C22.4403 19.5634 22.324 19.2681 22.2138 19.0212C22.1184 18.8031 21.9935 18.5975 21.8421 18.4093C21.6309 18.1618 21.4069 18.1094 21.2555 18.1094C21.0425 18.1094 20.847 18.2116 20.6726 18.4127C20.519 18.6034 20.3908 18.8109 20.2907 19.0306C20.1713 19.2776 20.049 19.5695 19.9235 19.9063C19.798 20.2432 19.6692 20.6056 19.537 20.9934L18.0756 25.2362C18.0661 25.2791 18.0612 25.3229 18.0609 25.3668C18.059 25.4424 18.0759 25.5175 18.1103 25.5859C18.1447 25.6544 18.1957 25.7144 18.2592 25.7612C18.3646 25.8367 18.4938 25.8772 18.6264 25.8764C18.7898 25.8764 19.0276 25.8197 19.2323 25.5498C19.2524 25.5239 19.2673 25.4948 19.2763 25.4639L19.7757 23.9394H22.6554L23.085 25.5232C23.1334 25.6237 23.2125 25.7085 23.3123 25.7669C23.4121 25.8253 23.5282 25.8548 23.6459 25.8515C24.013 25.8515 24.2581 25.6461 24.2884 25.317C24.292 25.2829 24.2886 25.2484 24.2783 25.2155L23.879 23.8311ZM21.4703 20.6514C21.5694 20.9184 21.6707 21.1962 21.7741 21.485L22.0798 22.3521C22.1321 22.5008 22.1808 22.6452 22.2276 22.7818H20.1952L21.2142 19.9588C21.2913 20.1702 21.3748 20.4005 21.4703 20.6531V20.6514Z" fill="#84CC16"/>
<path d="M27.438 23.3321C27.4533 22.9436 27.4683 22.5326 27.483 22.0989L27.5564 19.7674C27.5607 19.5904 27.5644 19.4365 27.5675 19.3059L27.7162 19.3111C27.9374 19.3188 28.1311 19.3291 28.2954 19.3403C28.6296 19.3557 28.8912 19.1744 28.938 18.8032C28.9402 18.6641 28.8889 18.5289 28.7935 18.4223C28.6981 18.3157 28.565 18.2447 28.4184 18.2222C28.3266 18.2102 28.1889 18.1964 27.998 18.1818C27.9255 18.1758 27.7052 18.1586 25.9078 18.2016C25.2735 18.1861 24.6685 18.2274 24.5602 18.6313C24.4684 18.9871 24.5969 19.1632 24.7245 19.2475C24.861 19.3377 25.0291 19.3758 25.1945 19.354C25.2987 19.3422 25.4035 19.3358 25.5085 19.3351L26.1263 19.3265H26.3475C26.3475 19.3781 26.3475 19.4339 26.3475 19.4984C26.3475 19.6961 26.3414 19.9252 26.3291 20.1859L26.2373 22.6085C26.2061 23.3329 26.1859 23.8675 26.174 24.2086C26.1666 24.408 26.1602 24.5825 26.1529 24.7311C25.6088 24.7225 25.2582 24.7182 25.1009 24.7182C24.979 24.7184 24.8591 24.748 24.753 24.8042C24.6382 24.8635 24.5014 24.9932 24.5014 25.2614C24.4941 25.4118 24.5492 25.6859 24.9935 25.8286C25.0231 25.8378 25.054 25.843 25.0853 25.844L28.3046 25.8956C28.3798 25.8993 28.455 25.889 28.526 25.8652C28.5969 25.8415 28.6621 25.8049 28.7177 25.7574C28.7734 25.7099 28.8185 25.6525 28.8503 25.5886C28.8821 25.5247 28.9001 25.4556 28.9031 25.3851C28.9132 25.3098 28.9067 25.2333 28.884 25.1604C28.8613 25.0876 28.8228 25.0198 28.7709 24.9614C28.7057 24.8975 28.627 24.8469 28.5397 24.813C28.4525 24.7791 28.3586 24.7627 28.2642 24.7647L27.3646 24.7526C27.3756 24.6426 27.3848 24.5163 27.3921 24.3736C27.4077 24.0668 27.4233 23.7188 27.438 23.3321Z" fill="#84CC16"/>
<path d="M39.4955 20.1163C39.6584 20.1163 39.8146 20.0558 39.9298 19.948C40.0449 19.8401 40.1096 19.6939 40.1096 19.5414C40.1096 19.3889 40.0449 19.2427 39.9298 19.1349C39.8146 19.0271 39.6584 18.9665 39.4955 18.9665H35.808V15.1999H39.4955C39.5762 15.1999 39.656 15.185 39.7305 15.1561C39.805 15.1272 39.8727 15.0849 39.9298 15.0315C39.9868 14.9781 40.032 14.9147 40.0629 14.845C40.0938 14.7752 40.1096 14.7004 40.1096 14.6249C40.1096 14.5494 40.0938 14.4747 40.0629 14.4049C40.032 14.3352 39.9868 14.2718 39.9298 14.2184C39.8727 14.165 39.805 14.1227 39.7305 14.0938C39.656 14.0649 39.5762 14.05 39.4955 14.05H35.7566C35.643 13.1524 35.2099 12.3167 34.5272 11.6776C33.8444 11.0384 32.9518 10.633 31.993 10.5266V7.02634C31.993 6.87387 31.9283 6.72763 31.8131 6.61981C31.6979 6.51199 31.5417 6.45142 31.3788 6.45142C31.216 6.45142 31.0598 6.51199 30.9446 6.61981C30.8294 6.72763 30.7647 6.87387 30.7647 7.02634V10.4767H26.7394V7.02634C26.7426 6.94903 26.7291 6.87191 26.6997 6.7996C26.6703 6.72729 26.6256 6.66128 26.5683 6.60552C26.511 6.54977 26.4423 6.50541 26.3663 6.47511C26.2902 6.44482 26.2084 6.4292 26.1258 6.4292C26.0431 6.4292 25.9613 6.44482 25.8853 6.47511C25.8092 6.50541 25.7405 6.54977 25.6832 6.60552C25.6259 6.66128 25.5812 6.72729 25.5518 6.7996C25.5224 6.87191 25.5089 6.94903 25.5121 7.02634V10.4767H21.4877V7.02634C21.4909 6.94903 21.4774 6.87191 21.448 6.7996C21.4186 6.72729 21.3739 6.66128 21.3166 6.60552C21.2593 6.54977 21.1906 6.50541 21.1146 6.47511C21.0385 6.44482 20.9567 6.4292 20.8741 6.4292C20.7914 6.4292 20.7096 6.44482 20.6336 6.47511C20.5575 6.50541 20.4888 6.54977 20.4315 6.60552C20.3742 6.66128 20.3295 6.72729 20.3001 6.7996C20.2707 6.87191 20.2572 6.94903 20.2604 7.02634V10.4767H16.236V7.02634C16.236 6.95084 16.2201 6.87608 16.1893 6.80633C16.1584 6.73658 16.1132 6.6732 16.0562 6.61981C15.9991 6.56643 15.9314 6.52408 15.8569 6.49519C15.7824 6.46629 15.7026 6.45142 15.6219 6.45142C15.5413 6.45142 15.4614 6.46629 15.3869 6.49519C15.3124 6.52408 15.2447 6.56643 15.1877 6.61981C15.1306 6.6732 15.0854 6.73658 15.0545 6.80633C15.0237 6.87608 15.0078 6.95084 15.0078 7.02634V10.5249C14.049 10.6313 13.1563 11.0367 12.4736 11.6759C11.7909 12.315 11.3578 13.1507 11.2441 14.0483H7.50431C7.34144 14.0483 7.18524 14.1089 7.07007 14.2167C6.9549 14.3245 6.89019 14.4707 6.89019 14.6232C6.89019 14.7757 6.9549 14.9219 7.07007 15.0298C7.18524 15.1376 7.34144 15.1981 7.50431 15.1981H11.1918V18.9665H7.50431C7.34144 18.9665 7.18524 19.0271 7.07007 19.1349C6.9549 19.2427 6.89019 19.3889 6.89019 19.5414C6.89019 19.6939 6.9549 19.8401 7.07007 19.948C7.18524 20.0558 7.34144 20.1163 7.50431 20.1163H11.1918V23.883H7.50431C7.34144 23.883 7.18524 23.9436 7.07007 24.0514C6.9549 24.1592 6.89019 24.3054 6.89019 24.4579C6.89019 24.6104 6.9549 24.7566 7.07007 24.8644C7.18524 24.9723 7.34144 25.0328 7.50431 25.0328H11.1918V28.8003H7.50431C7.42173 28.7973 7.33935 28.81 7.26211 28.8375C7.18487 28.865 7.11436 28.9069 7.0548 28.9605C6.99524 29.0141 6.94786 29.0785 6.9155 29.1497C6.88314 29.2209 6.86646 29.2974 6.86646 29.3748C6.86646 29.4522 6.88314 29.5288 6.9155 29.6C6.94786 29.6711 6.99524 29.7355 7.0548 29.7891C7.11436 29.8428 7.18487 29.8846 7.26211 29.9121C7.33935 29.9397 7.42173 29.9523 7.50431 29.9493H11.2432C11.3567 30.847 11.7897 31.6827 12.4725 32.3219C13.1553 32.9611 14.048 33.3665 15.0069 33.4727V36.9721C15.0069 37.1246 15.0716 37.2708 15.1867 37.3787C15.3019 37.4865 15.4581 37.547 15.621 37.547C15.7839 37.547 15.9401 37.4865 16.0552 37.3787C16.1704 37.2708 16.2351 37.1246 16.2351 36.9721V33.5226H20.2595V36.9738C20.2563 37.0512 20.2698 37.1283 20.2992 37.2006C20.3286 37.2729 20.3733 37.3389 20.4306 37.3947C20.4879 37.4504 20.5566 37.4948 20.6327 37.5251C20.7087 37.5554 20.7905 37.571 20.8732 37.571C20.9558 37.571 21.0376 37.5554 21.1136 37.5251C21.1897 37.4948 21.2584 37.4504 21.3157 37.3947C21.373 37.3389 21.4177 37.2729 21.4471 37.2006C21.4765 37.1283 21.49 37.0512 21.4868 36.9738V33.5226H25.5112V36.9738C25.508 37.0512 25.5215 37.1283 25.5509 37.2006C25.5803 37.2729 25.625 37.3389 25.6823 37.3947C25.7396 37.4504 25.8083 37.4948 25.8844 37.5251C25.9604 37.5554 26.0422 37.571 26.1249 37.571C26.2075 37.571 26.2893 37.5554 26.3653 37.5251C26.4414 37.4948 26.5101 37.4504 26.5674 37.3947C26.6247 37.3389 26.6694 37.2729 26.6988 37.2006C26.7282 37.1283 26.7417 37.0512 26.7385 36.9738V33.5226H30.7629V36.9738C30.7629 37.0493 30.7788 37.1241 30.8096 37.1939C30.8405 37.2636 30.8857 37.327 30.9428 37.3804C30.9998 37.4338 31.0675 37.4761 31.142 37.505C31.2165 37.5339 31.2964 37.5488 31.377 37.5488C31.4577 37.5488 31.5375 37.5339 31.612 37.505C31.6865 37.4761 31.7542 37.4338 31.8113 37.3804C31.8683 37.327 31.9135 37.2636 31.9444 37.1939C31.9752 37.1241 31.9911 37.0493 31.9911 36.9738V33.4745C32.95 33.3682 33.8427 32.9628 34.5255 32.3236C35.2083 31.6845 35.6413 30.8487 35.7548 29.951H39.4937C39.5763 29.954 39.6587 29.9414 39.7359 29.9139C39.8131 29.8863 39.8836 29.8445 39.9432 29.7909C40.0028 29.7372 40.0501 29.6729 40.0825 29.6017C40.1149 29.5305 40.1315 29.4539 40.1315 29.3765C40.1315 29.2992 40.1149 29.2226 40.0825 29.1514C40.0501 29.0802 40.0028 29.0159 39.9432 28.9622C39.8836 28.9086 39.8131 28.8667 39.7359 28.8392C39.6587 28.8117 39.5763 28.7991 39.4937 28.802H35.808V25.0328H39.4955C39.6584 25.0328 39.8146 24.9723 39.9298 24.8644C40.0449 24.7566 40.1096 24.6104 40.1096 24.4579C40.1096 24.3054 40.0449 24.1592 39.9298 24.0514C39.8146 23.9436 39.6584 23.883 39.4955 23.883H35.808V20.1163H39.4955ZM34.5807 29.4767C34.5795 30.2445 34.2531 30.9806 33.673 31.5236C33.0929 32.0665 32.3065 32.3718 31.4862 32.3727H15.5136C14.6933 32.3718 13.907 32.0665 13.3269 31.5236C12.7468 30.9806 12.4203 30.2445 12.4191 29.4767V14.5235C12.4203 13.7556 12.7467 13.0194 13.3268 12.4763C13.9069 11.9333 14.6933 11.6277 15.5136 11.6266H31.4862C32.3066 11.6277 33.093 11.9333 33.673 12.4763C34.2531 13.0194 34.5795 13.7556 34.5807 14.5235V29.4767Z" fill="#84CC16"/>
</svg>
