<svg width="40" height="40" viewBox="0 0 40 40" fill="none" xmlns="http://www.w3.org/2000/svg">
<path fill-rule="evenodd" clip-rule="evenodd" d="M20 0C8.95431 0 0 8.95431 0 20C0 31.0457 8.95431 40 20 40C31.0457 40 40 31.0457 40 20C40 8.95431 31.0457 0 20 0ZM20 2C10.0589 2 2 10.0589 2 20C2 29.9411 10.0589 38 20 38C29.9411 38 38 29.9411 38 20C38 10.0589 29.9411 2 20 2Z" fill="white"/>
<path d="M7 10H10.8684L14.1842 23.2632H25.7895C25.7895 23.2632 28 14.9737 27.4474 14.9737C26.8947 14.9737 12.5263 14.9737 12.5263 14.9737" stroke="#84CC16" stroke-width="2" stroke-linecap="round"/>
<circle cx="25.2368" cy="28.2368" r="2.76316" fill="#84CC16"/>
<circle cx="16.3947" cy="28.2368" r="2.76316" fill="#84CC16"/>
</svg>
