<svg width="40" height="40" viewBox="0 0 40 40" fill="none" xmlns="http://www.w3.org/2000/svg">
<path fill-rule="evenodd" clip-rule="evenodd" d="M20 40C31.0457 40 40 31.0459 40 20C40 8.9541 31.0457 0 20 0C8.95435 0 0 8.9541 0 20C0 31.0459 8.95435 40 20 40ZM20 38C29.9412 38 38 29.9409 38 20C38 10.0591 29.9412 2 20 2C10.0588 2 2 10.0591 2 20C2 29.9409 10.0588 38 20 38Z" fill="white"/>
<path d="M30.0342 7.93389L29.4736 20.5903L18.7931 13.7766L30.0342 7.93389Z" fill="#84CC16"/>
<path d="M20.5214 23.2398L10.564 31.0724L8.75944 18.5328L20.5214 23.2398Z" fill="#84CC16"/>
</svg>
