<svg width="50" height="50" viewBox="0 0 50 50" fill="none" xmlns="http://www.w3.org/2000/svg">
<g clip-path="url(#clip0_65_2)">
<path d="M49.9056 9.90764C49.9056 14.7849 46.6229 18.8685 42.0108 19.8725C39.3725 20.4491 36.8903 20.0285 34.5707 18.631C34.5029 18.5903 34.4486 18.5361 34.3808 18.6446C33.4652 20.0081 32.6378 21.4191 32.068 22.9657C31.851 23.5557 31.6814 24.1594 31.6339 24.7904C31.5865 25.394 31.729 25.9706 31.9052 26.5404C32.3597 28.0125 33.099 29.3487 33.9127 30.6375C34.0552 30.8681 34.2112 31.0921 34.3537 31.3158C34.408 31.4109 34.4554 31.4245 34.5571 31.3634C35.6965 30.6579 36.9378 30.1966 38.2603 30C41.0139 29.5996 43.5437 30.1898 45.7888 31.8315C48.0201 33.4662 49.3561 35.6843 49.7835 38.4181C50.5703 43.4785 47.3893 48.4913 42.1805 49.7125C36.7546 50.9876 31.4373 47.7587 30.0673 42.3592C29.3686 39.5983 29.8299 36.9936 31.3152 34.5719C31.3965 34.443 31.3897 34.3821 31.2608 34.3006C29.952 33.4391 28.6022 32.6455 27.1237 32.0892C26.4929 31.8517 25.8418 31.6551 25.1637 31.6211C24.4922 31.5804 23.8614 31.7568 23.2307 31.9672C21.5825 32.5166 20.0973 33.3917 18.6593 34.3481C18.5576 34.4158 18.6051 34.4566 18.6458 34.5245C19.3918 35.6979 19.8801 36.9664 20.0905 38.3434C20.4907 40.9211 19.9886 43.3225 18.5373 45.4932C16.8891 47.9487 14.5831 49.4409 11.66 49.8819C6.35618 50.6892 1.52715 47.2704 0.360589 42.2642C-0.900927 36.824 2.43599 31.4245 7.88897 30.156C10.5409 29.5387 13.0571 29.9525 15.4038 31.3498C15.5327 31.4311 15.5937 31.4245 15.6819 31.2887C16.5636 29.9525 17.3775 28.5823 17.9336 27.0762C18.1574 26.4726 18.3338 25.8621 18.3813 25.2177C18.4287 24.614 18.2863 24.0374 18.11 23.4675C17.6555 21.9957 16.9163 20.6592 16.1024 19.3704C15.9667 19.1534 15.8175 18.9498 15.6887 18.7328C15.6276 18.6378 15.5869 18.6107 15.4784 18.6785C14.2847 19.4247 12.9825 19.8994 11.5854 20.0758C8.71643 20.4355 6.11201 19.7504 3.85348 17.9391C1.83914 16.3179 0.611534 14.2015 0.224941 11.6442C-0.58894 6.33281 2.87005 1.29277 8.20097 0.248133C13.5048 -0.78972 18.6661 2.47987 19.948 7.73017C20.6195 10.4707 20.165 13.0551 18.7 15.4564C18.6186 15.5853 18.639 15.6328 18.7611 15.7142C20.0701 16.5757 21.4129 17.3625 22.8848 17.912C23.5156 18.1494 24.1531 18.3393 24.8244 18.38C25.5231 18.4208 26.1876 18.2376 26.8388 18.0137C28.331 17.505 29.6942 16.7249 31.0099 15.8702C31.1456 15.782 31.3491 15.7074 31.3897 15.5853C31.4305 15.4632 31.2541 15.314 31.1727 15.1783C30.0741 13.2857 29.6127 11.244 29.8231 9.06649C30.2301 4.94221 33.1261 1.50984 37.1073 0.383801C42.6756 -1.18315 48.3659 2.19496 49.6682 7.83872C49.8242 8.58489 49.9056 9.33106 49.9056 9.90764ZM44.1407 44.3468C44.1339 44.34 44.1271 44.3264 44.1203 44.3196C44.1407 44.2925 44.1608 44.2653 44.1812 44.2381C45.1512 43.1936 45.6937 41.9591 45.809 40.5413C45.904 39.3745 45.6531 38.2689 45.0833 37.2445C44.5001 36.1932 43.6657 35.3859 42.5942 34.8432C42.4993 34.7959 42.4518 34.7959 42.4246 34.9179C42.2008 35.8947 41.882 36.8308 41.4954 37.7534C41.3937 37.9975 41.3937 37.9975 41.6041 38.1536C42.3974 38.7438 42.7163 39.5238 42.4925 40.4938C42.3365 41.1721 41.882 41.6606 41.3463 42.0743C40.8308 42.4745 40.2407 42.6034 39.6031 42.5153C39.4608 42.4949 39.4541 42.5425 39.4473 42.6509C39.3997 43.2343 39.3725 43.8311 39.2573 44.4077C39.0267 45.5202 38.5791 46.5581 38.1246 47.5892C38.0705 47.7181 37.989 47.8402 37.8805 47.9419C37.8059 48.0098 37.7108 48.0436 37.6295 47.9894C37.399 47.847 37.1616 47.7113 37.0531 47.44C37.0259 47.3721 36.9852 47.3313 36.9174 47.3043C36.0018 46.9175 35.1878 46.3885 34.4757 45.6966C33.0582 44.306 32.2646 42.6102 32.1224 40.6362C32.0003 38.9608 32.4071 37.4006 33.3091 35.976C33.3635 35.8879 33.3567 35.8404 33.2752 35.7794C32.9497 35.5419 32.631 35.2977 32.3122 35.0468C32.2173 34.9721 32.1833 34.9925 32.1224 35.0874C30.7861 37.2853 30.359 39.6391 30.9829 42.1353C32.2241 47.1143 37.1616 50.0515 42.1397 48.8102C47.0027 47.596 50.0073 42.4813 48.6916 37.6447C47.6674 33.88 44.5678 31.2617 40.6544 30.8817C38.674 30.6919 36.8291 31.1328 35.1133 32.1434C35.0048 32.2113 35.0048 32.2521 35.0725 32.347C35.839 33.3781 36.6733 34.3549 37.5414 35.3045C38.2942 36.1253 39.1895 36.7426 40.1593 37.2717C40.1865 37.2853 40.2069 37.3057 40.2407 37.2853C40.2882 36.763 40.3154 36.2406 40.4035 35.7183C40.6071 34.5243 41.0954 33.4323 41.5769 32.3334C41.631 32.2045 41.7057 32.0892 41.8074 31.9942C41.882 31.9264 41.9703 31.8789 42.0584 31.9332C42.3637 32.1028 42.6416 32.3062 42.7163 32.6862C42.7976 33.1338 42.6959 33.5679 42.6214 34.0089C42.6078 34.1106 42.6214 34.1513 42.7095 34.1921C43.0961 34.3887 43.4556 34.633 43.7946 34.9043C45.7344 36.4645 46.5754 39.0964 45.8973 41.4909C45.5716 42.5966 44.9952 43.553 44.1407 44.3468ZM45.3274 7.37066C45.2733 7.28247 45.219 7.19428 45.1646 7.10611C44.4797 5.96651 43.5301 5.13215 42.3025 4.61662C41.1022 4.10787 39.8608 4.0129 38.5925 4.31815C37.5618 4.56913 36.6665 5.06432 35.9001 5.8037C35.839 5.86475 35.7848 5.90545 35.9001 5.97328C36.8156 6.54309 37.6567 7.20107 38.4503 7.93368C38.518 7.99474 38.5588 8.00151 38.6333 7.94045C39.2099 7.47241 39.8744 7.37066 40.5595 7.57415C41.4888 7.85906 42.1195 8.50347 42.445 9.41245C42.6484 9.98904 42.601 10.5792 42.2822 11.1151C42.1805 11.2914 42.2348 11.3321 42.3839 11.3796C43.9439 11.9358 45.185 12.9669 46.372 14.0658C46.5076 14.1879 46.6365 14.3236 46.7246 14.4932C46.779 14.5949 46.8127 14.7102 46.711 14.7916C46.5008 14.9748 46.2839 15.1512 45.9854 15.1579C45.9242 15.1579 45.8769 15.1783 45.8361 15.2258C45.4903 15.6192 45.1037 15.9787 44.6763 16.2908C43.3063 17.3083 41.7667 17.8238 40.0712 17.8509C38.5925 17.8713 37.2225 17.4914 35.9542 16.7317C35.8593 16.6774 35.8186 16.691 35.7644 16.7724C35.5407 17.0708 35.3167 17.3761 35.0793 17.6678C34.9912 17.7763 35.0048 17.8238 35.1269 17.8916C37.182 19.0991 39.3793 19.4857 41.7057 18.9974C46.8195 17.9188 49.9599 12.8923 48.6916 7.83192C47.491 3.02932 42.6146 -0.0164164 37.6703 1.21137C32.7259 2.43915 29.8095 7.24856 30.949 12.2004C31.1727 13.184 31.5729 14.1065 32.1088 14.9545C32.1425 15.0087 32.1561 15.0901 32.2578 15.0087C32.5971 14.7442 32.9429 14.4796 33.2888 14.2218C33.3635 14.1676 33.3499 14.1201 33.3091 14.0523C32.9973 13.5435 32.7665 12.9941 32.5903 12.431C32.4886 12.1122 32.4139 11.7798 32.3733 11.4475C32.3801 11.5288 32.4139 11.5967 32.4342 11.6781C32.6444 12.4785 32.9429 13.245 33.3907 13.9437C33.4584 14.0455 33.4924 14.0658 33.594 13.9776C34.0484 13.5978 34.4961 13.2179 34.9301 12.8177C35.5474 12.2479 36.1578 11.6645 36.619 10.9455C37.0124 10.335 37.3514 9.69057 37.7312 9.07328C37.7924 8.97832 37.738 8.95796 37.6703 8.92404C37.2157 8.72055 36.7546 8.51704 36.3003 8.29998C35.0657 7.70983 34.0891 6.78051 33.1057 5.86475C33.0242 5.78336 32.9565 5.68838 32.9157 5.57985C32.882 5.49845 32.8752 5.41706 32.9429 5.356C33.2278 5.10502 33.5261 4.90151 33.9399 4.9897C34.3605 5.07789 34.7199 5.29494 35.0929 5.49166C35.181 5.53915 35.2354 5.55272 35.3099 5.47132C35.622 5.15251 35.9814 4.88794 36.368 4.66409C37.9754 3.72121 39.6914 3.47023 41.482 4.00611C43.259 4.53521 44.5542 5.66124 45.3546 7.34353C45.3478 7.3503 45.3342 7.35709 45.3274 7.37066ZM16.4076 44.2043C17.4724 42.5491 17.859 40.7447 17.5335 38.7979C17.3775 37.8551 17.0316 36.98 16.5365 36.166C16.4619 36.0508 16.4212 36.01 16.2991 36.1253C16.1363 36.2813 15.96 36.417 15.7836 36.5594C14.4407 37.6515 13.3081 38.9268 12.5349 40.4938C12.3518 40.8668 12.1279 41.2196 11.877 41.5521C11.6396 41.864 11.3751 42.1489 11.0156 42.3117C10.8597 42.3796 10.8325 42.4474 10.9003 42.6034C11.5447 44.1092 11.6667 45.7034 11.6735 47.3179C11.6735 47.5349 11.6667 47.7587 11.6057 47.9691C11.5718 48.0911 11.5175 48.2064 11.3615 48.1928C10.9343 48.1591 10.5612 48.0166 10.3645 47.5892C10.256 47.3585 10.1814 47.1211 10.1136 46.8702C10.0729 46.7209 10.0729 46.5309 9.98473 46.4292C9.88299 46.314 9.67952 46.3749 9.52352 46.3545C8.16028 46.1647 6.93946 45.6423 5.95601 44.6723C4.07731 42.834 3.52794 40.6294 4.27399 38.1128C4.35539 37.8415 4.4639 37.5702 4.6199 37.3125C4.62667 37.3394 4.63346 37.3462 4.62667 37.3462C4.59954 37.4074 4.57243 37.4753 4.54529 37.5362C3.98914 38.9472 3.94845 40.3785 4.4639 41.7962C5.06075 43.4445 6.17984 44.6113 7.8008 45.2964C8.41122 45.5542 9.05554 45.6898 9.71343 45.7306C9.78803 45.7374 9.84909 45.7374 9.82195 45.6289C9.62526 44.6249 9.54388 43.6074 9.53031 42.583C9.53031 42.5085 9.50995 42.4677 9.43535 42.4474C8.70286 42.2304 8.18061 41.7419 7.78724 41.1179C7.19041 40.1817 7.37352 39.0285 8.20775 38.296C8.55365 37.9908 8.9538 37.7534 9.36075 37.5294C9.47605 37.4685 9.48282 37.4142 9.44214 37.2989C9.25901 36.7698 9.05554 36.2406 8.92667 35.6843C8.67573 34.5651 8.67573 33.4255 8.67573 32.2926C8.67573 32.1434 8.68929 31.9942 8.75033 31.8517C8.79103 31.7568 8.85207 31.6755 8.96737 31.6891C9.23188 31.7228 9.49639 31.7568 9.70665 31.9468C9.78126 32.0145 9.85586 32.0349 9.9508 32.0349C10.5273 32.0213 11.0902 32.0825 11.6532 32.1977C12.5281 32.3809 13.3488 32.7064 14.1084 33.1813C14.1966 33.2357 14.2373 33.2357 14.2983 33.1474C14.495 32.876 14.6984 32.6047 14.9087 32.347C15.0104 32.2249 14.9901 32.1774 14.8544 32.096C12.6637 30.8208 10.3374 30.4883 7.8822 31.0989C3.12099 32.2725 0.109642 37.2174 1.24908 41.986C2.38173 46.687 6.75633 49.6717 11.5243 48.9662C13.8303 48.627 15.7361 47.5417 17.2147 45.7374C18.8628 43.7294 19.5342 41.4096 19.2357 38.8251C19.0799 37.4617 18.6186 36.2068 17.8929 35.0468C17.8387 34.9585 17.8048 34.9517 17.7302 35.0128C17.4317 35.2502 17.1265 35.4809 16.8213 35.7047C16.7399 35.7658 16.7535 35.8064 16.7942 35.8879C17.7505 37.5362 18.0625 39.3 17.7369 41.1721C17.5538 42.2372 17.1469 43.214 16.5297 44.1025C16.4958 44.1432 16.4958 44.2315 16.4076 44.2043ZM16.1567 5.50523C15.7565 5.01006 15.3089 4.56234 14.7934 4.18247C13.0707 2.92757 11.1513 2.42558 9.05554 2.80545C6.51895 3.26674 4.68773 4.70479 3.5822 7.04506C3.48046 7.26213 3.41263 7.49275 3.32446 7.7166C3.60933 7.73696 3.87384 7.7573 4.13835 7.78445C5.39309 7.92011 6.6139 8.20502 7.8076 8.61202C7.9229 8.65272 7.98394 8.61879 8.05177 8.5374C8.28235 8.25928 8.54686 8.01508 8.85207 7.82515C9.70665 7.28926 10.785 7.37743 11.4972 8.03543C11.7346 8.25249 11.9177 8.51026 12.094 8.77481C12.3857 9.22251 12.6366 9.69736 12.9011 10.1654C12.9622 10.2739 13.03 10.3146 13.1589 10.3146C13.7964 10.3214 14.4339 10.3078 15.0579 10.4367C16.0007 10.6267 16.9163 10.9184 17.8251 11.244C17.9743 11.2982 18.1235 11.3661 18.2524 11.4678C18.3406 11.5424 18.4084 11.6306 18.3541 11.7527C18.1574 12.1936 17.8522 12.4785 17.3436 12.4921C17.0044 12.5057 16.6653 12.4785 16.3262 12.4446C16.2313 12.4378 16.1838 12.4582 16.1499 12.5531C16.0549 12.8041 15.926 13.0348 15.7904 13.2586C15.7294 13.3604 15.7497 13.4078 15.8311 13.4825C16.4347 13.9912 17.0587 14.4796 17.6895 14.9612C17.8251 15.063 17.8794 15.063 17.9675 14.9138C19.1816 12.872 19.5954 10.6945 19.1476 8.36104C18.1846 3.4024 13.3216 0.166733 8.36375 1.16389C3.57541 2.12034 0.401281 6.65841 1.13377 11.4814C1.47967 13.7674 2.55807 15.6667 4.33503 17.1319C6.30869 18.7667 8.60112 19.4315 11.1513 19.1874C12.5077 19.0583 13.7693 18.6175 14.9358 17.912C15.0172 17.8645 15.0511 17.8306 14.9765 17.7356C14.4678 17.0505 13.932 16.379 13.3759 15.7345C13.3081 15.6531 13.2606 15.6464 13.1656 15.6938C11.9041 16.3247 10.5748 16.5214 9.18441 16.2704C8.06533 16.0669 7.07511 15.5853 6.21375 14.8391C6.16628 14.7984 6.09167 14.7645 6.07131 14.6424C6.39009 14.907 6.69529 15.124 7.02084 15.3072C8.25522 15.9991 9.57779 16.2365 10.975 16.0194C11.6396 15.9177 12.2704 15.6938 12.8604 15.3682C12.9147 15.3343 13.0164 15.3208 12.9147 15.219C12.4535 14.7374 12.0126 14.2286 11.4836 13.8081C10.785 13.2654 10.0051 12.8516 9.23867 12.4107C8.8792 12.2072 8.52652 11.9833 8.20775 11.712C7.70586 11.2779 7.43456 10.742 7.44812 10.0772C7.44812 9.93477 7.40745 9.90764 7.27858 9.90764C6.71563 9.89408 6.14592 9.91441 5.58299 9.83302C4.51816 9.677 3.5076 9.32426 2.49024 8.97832C2.34103 8.92406 2.19182 8.85621 2.06973 8.74768C1.99512 8.67985 1.92731 8.59845 1.97478 8.4899C2.09686 8.23892 2.22573 7.98794 2.49024 7.85906C2.55807 7.82515 2.59197 7.77766 2.61911 7.70983C3.14812 6.14966 4.07052 4.8676 5.39986 3.90436C7.07511 2.68336 8.9606 2.18817 11.0224 2.45272C12.7248 2.66979 14.1966 3.3956 15.4242 4.59626C15.7022 4.8676 15.9803 5.15251 16.1838 5.49166C16.177 5.49166 16.1634 5.49845 16.1567 5.50523ZM33.4924 35.9557C32.9769 36.8375 32.6444 37.7668 32.4954 38.764C32.3325 39.8832 32.4139 40.9823 32.7665 42.0472C33.4652 44.1296 34.8148 45.6357 36.8291 46.5377C36.931 46.5853 36.9648 46.5785 36.9784 46.4564C37.0599 45.7781 37.2022 45.1132 37.3786 44.4553C37.6159 43.587 37.9144 42.7391 38.2739 41.9183C38.301 41.8572 38.3484 41.8098 38.2807 41.7351C37.8805 41.274 37.5752 40.7447 37.3041 40.2089C36.4291 38.4453 35.0048 37.1768 33.4924 35.9557ZM24.994 30.156C27.8901 30.1425 30.0401 27.8496 30.1554 25.2379C30.2842 22.3143 27.9578 19.8589 25.0144 19.8589C22.1252 19.8589 19.9752 22.1515 19.8531 24.7564C19.7174 27.6936 22.0505 30.1425 24.994 30.156ZM45.1782 14.968C45.1646 14.9545 45.1646 14.9477 45.158 14.9477C43.7269 14.2286 42.4314 13.3129 41.258 12.2275C41.1903 12.1665 41.1427 12.1801 41.0818 12.2208C40.8105 12.3836 40.5324 12.5396 40.261 12.6956C39.5963 13.0755 38.9182 13.4485 38.3416 13.9573C37.5142 14.6899 36.7954 15.531 36.0899 16.379C35.995 16.4943 36.1103 16.5011 36.1646 16.5282C37.7516 17.3761 39.4269 17.6339 41.1903 17.2744C42.7571 16.9488 44.0863 16.1755 45.1782 14.968ZM10.7783 36.6951C11.0699 36.5187 11.3276 36.3425 11.5718 36.1389C12.4196 35.413 13.1317 34.5651 13.8507 33.724C13.9253 33.6358 13.8439 33.6223 13.7964 33.5951C13.1928 33.2626 12.5552 33.0253 11.8838 32.876C11.3141 32.7472 10.7376 32.693 10.1407 32.7064C10.5205 34.0089 10.7172 35.3249 10.7783 36.6951ZM37.5686 39.0151C37.582 38.8726 37.4939 38.7775 37.4397 38.6758C36.6665 37.2989 35.6084 36.166 34.4282 35.1417C34.2112 34.9585 34.2112 34.9653 34.0282 35.1892C33.9467 35.2909 33.9467 35.3385 34.0552 35.4266C35.3507 36.4849 36.558 37.6447 37.5686 39.0151ZM38.9927 12.4853C38.9859 12.4717 38.9791 12.4582 38.9724 12.4446C38.8707 12.4989 38.7622 12.5531 38.6605 12.6074C37.3242 13.3671 36.212 14.3914 35.2082 15.5378C35.0184 15.7549 35.0252 15.7549 35.249 15.938C35.3439 16.0194 35.3914 16.033 35.4863 15.9245C36.2459 14.9951 37.0665 14.1201 37.9686 13.3265C38.2942 13.028 38.6401 12.7566 38.9927 12.4853ZM10.9885 37.543C11.0563 37.577 11.1038 37.5362 11.1513 37.5091C11.3412 37.4006 11.5379 37.2989 11.721 37.1836C12.8672 36.4645 13.8439 35.5623 14.7391 34.5515C14.9494 34.3142 14.9833 34.3887 14.6917 34.1581C14.5967 34.0836 14.5492 34.0836 14.4611 34.1853C13.4234 35.4266 12.2975 36.5798 10.9885 37.543ZM17.4046 15.7074C17.3639 15.6735 17.33 15.6464 17.2893 15.6192C16.6653 15.1579 16.0414 14.6899 15.4513 14.1744C15.2614 14.0048 15.2682 14.0183 15.0986 14.1879C14.9765 14.31 15.0172 14.3711 15.119 14.4661C15.7022 15.0019 16.3194 15.4903 16.9705 15.9448C17.018 15.9787 17.0723 16.0805 17.1401 16.0127C17.2418 15.9245 17.3164 15.8159 17.4046 15.7074ZM33.4924 17.8849C33.0242 18.4547 31.7425 21.1206 31.6271 21.7921C31.6814 21.704 31.7154 21.6564 31.7425 21.6089C32.3325 20.5372 32.9497 19.4857 33.6144 18.4615C33.8314 18.1223 33.8314 18.1223 33.4924 17.8849ZM18.3541 28.2634C18.3406 28.2838 18.327 28.2906 18.327 28.2974C17.6623 29.4843 16.9909 30.6647 16.2313 31.7975C16.1906 31.8585 16.2041 31.8857 16.2516 31.9196C16.2991 31.9536 16.3533 31.9808 16.3873 32.0281C16.489 32.1434 16.55 32.1096 16.6246 31.9875C17.3097 30.8479 17.8997 29.6675 18.3406 28.4126C18.3541 28.3719 18.3813 28.3313 18.3541 28.2634ZM28.2427 31.6415C28.2767 31.6619 28.3039 31.6823 28.331 31.6959C29.4501 32.3062 30.5488 32.9508 31.6137 33.6426C31.851 33.7987 31.8442 33.7987 32.0273 33.5883C32.1088 33.4934 32.1156 33.4594 32.0003 33.3917C30.8473 32.693 29.6467 32.1028 28.3784 31.6551C28.3376 31.6347 28.2971 31.6143 28.2427 31.6415ZM17.92 16.5621C18.7136 17.1251 21.3316 18.3665 21.7522 18.3597C21.6233 18.2851 21.5214 18.224 21.4197 18.1698C20.4227 17.6271 19.4529 17.0437 18.4966 16.4332C18.1574 16.2161 18.1574 16.2162 17.9268 16.5418C17.9201 16.5553 17.92 16.5621 17.92 16.5621ZM12.7926 11.7188C12.8265 11.7798 12.8469 11.807 12.8604 11.8341C13.3216 12.5464 13.8642 13.1976 14.4475 13.8148C14.5628 13.9369 14.6103 13.9234 14.712 13.8013C14.8205 13.6656 14.8205 13.5978 14.6849 13.4757C14.1355 12.9873 13.6268 12.4446 13.1453 11.8884C13.0571 11.7798 12.9554 11.7391 12.7926 11.7188ZM32.9361 33.9953C32.8888 33.9885 32.8752 34.0225 32.8548 34.0496C32.8005 34.1106 32.7531 34.1785 32.6988 34.2328C32.631 34.3074 32.6376 34.3481 32.7191 34.4023C32.9973 34.6058 33.2752 34.8092 33.5465 35.0196C33.8178 35.2298 33.8178 35.2298 34.0348 34.9653C34.0959 34.8908 34.0824 34.8636 34.0146 34.8092C33.689 34.5379 33.3363 34.2938 32.9973 34.0428C32.9837 34.0292 32.9565 34.0089 32.9361 33.9953ZM35.215 16.2297C35.1269 16.1551 35.0388 16.0873 34.964 16.0059C34.8963 15.938 34.8488 15.938 34.7876 16.0194C34.5842 16.2908 34.374 16.5621 34.1773 16.8334C33.9874 17.0912 33.9874 17.0912 34.2452 17.2879C34.3265 17.349 34.3673 17.3558 34.435 17.2676C34.6656 16.9488 34.9099 16.6299 35.1473 16.3179C35.1676 16.2908 35.1878 16.2636 35.215 16.2297ZM14.8612 33.69C14.9358 33.7511 15.024 33.8055 15.0918 33.8732C15.1936 33.9885 15.2546 33.9411 15.3224 33.846C15.4852 33.6223 15.6548 33.4051 15.8175 33.1813C16.0346 32.8896 16.0278 32.8964 15.7361 32.6862C15.6615 32.6387 15.6344 32.6523 15.5869 32.7132C15.3496 33.0457 15.1054 33.3713 14.8612 33.69ZM15.5191 12.3564C15.1461 12.2886 14.7731 12.214 14.4 12.1461C14.6374 12.4107 14.8884 12.6481 15.1393 12.8855C15.1664 12.9127 15.2003 12.933 15.2343 12.9669C15.3496 12.7634 15.4513 12.5735 15.5191 12.3564Z" fill="#3F6212"/>
<path d="M16.1576 5.47168C16.209 5.52592 16.2605 5.58921 16.3119 5.64345H16.3205C16.1747 5.71577 16.2004 5.53496 16.1318 5.49879C16.1318 5.48976 16.149 5.48072 16.1576 5.47168Z" fill="#3F6212"/>
<path d="M16.3208 5.69519C16.3276 5.66127 16.3479 5.6477 16.3751 5.67483C16.3818 5.68163 16.3886 5.70197 16.3818 5.70197C16.3615 5.73589 16.3479 5.67483 16.3208 5.69519Z" fill="#3F6212"/>
<path d="M16.3374 5.84908C16.3578 5.79517 16.2764 5.70083 16.3578 5.6604C16.3442 5.72778 16.412 5.82212 16.3374 5.84908Z" fill="#3F6212"/>
<path d="M5.9637 14.5283C5.97726 14.5419 6.0044 14.5555 5.98406 14.5758C5.95693 14.6029 5.95013 14.569 5.94336 14.5487C5.95013 14.5487 5.95693 14.5419 5.9637 14.5283Z" fill="#3F6212"/>
<path d="M5.9637 14.5283C5.97726 14.5419 5.98406 14.5487 5.99762 14.5622C5.99083 14.569 5.98406 14.5758 5.97727 14.5894C5.95693 14.5894 5.94336 14.5758 5.94336 14.5555C5.95013 14.5419 5.95693 14.5351 5.9637 14.5283Z" fill="#3F6212"/>
<path d="M5.94336 14.5429C5.97049 14.509 5.98406 14.5429 5.99762 14.5565C5.99083 14.5633 5.98406 14.5701 5.97727 14.5768C5.95693 14.5768 5.95013 14.5633 5.94336 14.5429Z" fill="#3F6212"/>
<path d="M5.98406 14.5646C5.95693 14.5646 5.95013 14.5578 5.95013 14.5307H5.94336C5.97727 14.5239 5.99083 14.5307 5.98406 14.5646Z" fill="#3F6212"/>
<path d="M5.94336 14.5313C5.95693 14.5313 5.97049 14.5381 5.98406 14.5381C5.97727 14.5449 5.97727 14.5585 5.97049 14.5652H5.97727C5.95693 14.5652 5.94336 14.5517 5.94336 14.5313Z" fill="#3F6212"/>
<path d="M5.97049 14.5622C5.9637 14.5555 5.95693 14.5419 5.94336 14.5351C5.95013 14.5351 5.95693 14.5283 5.95693 14.5283C5.98406 14.5419 5.98406 14.5555 5.97049 14.5622Z" fill="#3F6212"/>
<path d="M5.7579 14.3396L5.76468 14.3464C5.7579 14.3464 5.7579 14.3396 5.7579 14.3396Z" fill="#3F6212"/>
<path d="M5.75488 14.3427C5.76179 14.3427 5.76179 14.3358 5.75488 14.3427Z" fill="#3F6212"/>
<path d="M16.3429 44.1509C16.3904 44.1645 16.3565 44.1916 16.3497 44.212C16.3497 44.2186 16.3226 44.2186 16.3226 44.2186C16.3158 44.1916 16.3294 44.1713 16.3429 44.1509Z" fill="#3F6212"/>
<path d="M45.4054 7.54712C45.4612 7.67061 45.5103 7.80099 45.5661 7.92448C45.4823 7.8147 45.4193 7.69806 45.3774 7.5677C45.3844 7.56084 45.3984 7.55399 45.4054 7.54712Z" fill="#3F6212"/>
<path d="M45.4046 7.3584C45.4182 7.4123 45.425 7.45274 45.4384 7.50664C45.4318 7.52013 45.4182 7.53361 45.4114 7.54708C45.3842 7.52012 45.3774 7.46621 45.3774 7.4123C45.3842 7.38536 45.3978 7.37187 45.4046 7.3584Z" fill="#3F6212"/>
<path d="M45.5727 7.92456C45.5727 7.93135 45.5795 7.94492 45.5795 7.95169C45.5795 7.95848 45.5727 7.95848 45.5727 7.96526C45.5727 7.95848 45.5659 7.9449 45.5659 7.93813C45.5659 7.93133 45.5727 7.92456 45.5727 7.92456Z" fill="#3F6212"/>
<path d="M45.4114 7.3584C45.4182 7.39883 45.4318 7.43927 45.4386 7.49317C45.4318 7.50664 45.4182 7.53361 45.4114 7.54708C45.3842 7.52012 45.3774 7.46621 45.3774 7.4123C45.3842 7.38536 45.3978 7.37187 45.4114 7.3584Z" fill="#3F6212"/>
<path d="M44.0568 44.3773C44.0044 44.4402 43.9625 44.5283 43.8682 44.5283C43.8997 44.4277 43.9519 44.3773 44.0253 44.3396C44.0253 44.3522 44.0463 44.3647 44.0568 44.3773Z" fill="#3F6212"/>
<path d="M44.111 44.3668C44.0974 44.3804 44.0906 44.3871 44.077 44.4007C44.0702 44.3939 44.0634 44.3804 44.0566 44.3736C44.0702 44.36 44.077 44.3532 44.0906 44.3396C44.0906 44.3464 44.0974 44.3532 44.111 44.3668Z" fill="#3F6212"/>
<path d="M44.111 44.3668C44.0974 44.3736 44.0906 44.3871 44.077 44.3939C44.0702 44.3871 44.0634 44.3804 44.0566 44.3736C44.0566 44.3532 44.0702 44.3396 44.0906 44.3396C44.1042 44.3532 44.111 44.36 44.111 44.3668Z" fill="#3F6212"/>
<path d="M25.1043 29.0565C22.765 29.0429 21.0515 27.1456 21.0377 25.0306C21.0241 22.9022 22.7243 20.9708 25.0771 20.9437C27.2871 20.9163 29.1231 22.7322 29.1503 24.9627C29.1845 27.1048 27.4707 29.0361 25.1043 29.0565ZM25.0975 27.9208C26.7228 27.9208 28.0352 26.6152 28.0284 24.9967C28.0284 23.3986 26.716 22.0997 25.1179 22.0793C23.5947 22.0589 22.1733 23.2829 22.1598 24.9967C22.1598 26.6152 23.479 27.9208 25.0975 27.9208Z" fill="#3F6212"/>
<path d="M27.453 25.0908C27.453 26.4463 26.356 27.5403 25.0036 27.547C23.6443 27.547 22.5474 26.4531 22.5474 25.0976C22.5474 23.7423 23.6376 22.6484 24.9968 22.6414C26.3491 22.6346 27.453 23.7353 27.453 25.0908ZM25.1555 23.584C25.1555 23.5221 25.1555 23.4533 25.1555 23.3914C25.1347 23.0404 25.0589 22.9786 24.707 23.0199C24.6517 23.0267 24.6034 23.0404 24.5551 23.0474C23.6443 23.2263 22.92 24.0793 22.8992 24.9944C22.8992 25.1114 22.92 25.1665 23.0442 25.2008C24.1066 25.4967 25.1692 24.6918 25.1555 23.584ZM26.9287 25.9095C26.6043 25.8063 26.3283 25.8752 26.0868 26.0746C25.8247 26.2948 25.7557 26.5838 25.7972 26.914C25.8109 27.0035 25.8455 27.0035 25.9143 26.9691C26.3766 26.7421 26.7079 26.3912 26.9287 25.9095ZM25.1623 25.0427C25.1623 24.9876 25.1002 24.9257 25.0036 24.9257C24.914 24.9257 24.8449 24.9738 24.8381 25.0838C24.8381 25.194 24.9002 25.2491 24.9898 25.2559C25.0864 25.2559 25.1555 25.2008 25.1623 25.0427Z" fill="#3F6212"/>
</g>
<defs>
<clipPath id="clip0_65_2">
<rect width="50" height="50" fill="white"/>
</clipPath>
</defs>
</svg>
