<svg width="35" height="36" viewBox="0 0 35 36" fill="none" xmlns="http://www.w3.org/2000/svg">
<g clip-path="url(#clip0_65_71)">
<mask id="mask0_65_71" style="mask-type:luminance" maskUnits="userSpaceOnUse" x="0" y="0" width="35" height="36">
<path d="M35 0H0V36H35V0Z" fill="white"/>
</mask>
<g mask="url(#mask0_65_71)">
<path fill-rule="evenodd" clip-rule="evenodd" d="M2.78754 4.87785C2.83036 4.87596 2.87341 4.875 2.91667 4.875H5.10417H29.93H32.0833C32.1266 4.875 32.1697 4.87596 32.2125 4.87785H33.5417C34.3471 4.87785 35 5.53077 35 6.33618V7.79119V28.2045V29.6653C35 30.4706 34.3471 31.1236 33.5417 31.1236H29.9865C29.9263 31.1311 29.8654 31.1311 29.8051 31.1236H5.19488C5.13465 31.1311 5.07369 31.1311 5.01346 31.1236H1.45833C0.65292 31.1236 0 30.4706 0 29.6653V28.2045V7.79119V6.33618C0 5.53077 0.652918 4.87785 1.45833 4.87785H2.78754ZM33.5417 28.2156C33.5359 29.0306 32.9002 29.6627 32.0833 29.6627H30.625V10.7074C30.6253 10.569 30.5862 10.4333 30.5123 10.3163C30.449 10.2162 30.3625 10.1333 30.2605 10.0744V9.93765L30.1551 10.0244C30.044 9.98211 29.9239 9.96753 29.8054 9.98234C29.668 9.9995 29.5383 10.0554 29.4316 10.1435L17.5 19.9686L5.56844 10.1435C5.43528 10.0344 5.26779 9.97586 5.09563 9.97834C5.00957 9.97936 4.92525 9.99557 4.84625 10.0254L4.73962 9.93765V10.076C4.68366 10.1083 4.63177 10.1481 4.58556 10.1949C4.45067 10.3314 4.37501 10.5155 4.375 10.7074V29.6627H2.91667C2.09614 29.6627 1.45833 29.0249 1.45833 28.2045V7.79119C1.45833 7.00261 2.04753 6.38293 2.82186 6.33596H4.84845L17.0357 16.3718C17.1664 16.4796 17.3305 16.5386 17.5 16.5386C17.6695 16.5386 17.8336 16.4796 17.9643 16.3718L30.1516 6.33596H32.1782C32.9489 6.38271 33.5361 6.9968 33.5417 7.78009V28.2156ZM27.8587 6.33596L17.5 14.8652L7.14134 6.33596H27.8587ZM17.0357 21.4751L5.83334 12.2509V29.6627H29.1667V12.2509L17.9643 21.4751C17.8336 21.583 17.6695 21.642 17.5 21.642C17.3305 21.642 17.1664 21.583 17.0357 21.4751Z" fill="#101010"/>
</g>
</g>
<defs>
<clipPath id="clip0_65_71">
<rect width="35" height="36" fill="white"/>
</clipPath>
</defs>
</svg>
