<svg width="40" height="40" viewBox="0 0 40 40" fill="none" xmlns="http://www.w3.org/2000/svg">
<path d="M9.10225 18C9.10225 18 7.60225 18 6.10225 18C4.60225 18 20.1022 8 20.1022 8C20.1022 8 34.6022 18 34.1022 18C33.6023 18 31.1022 18 31.1022 18M9.10225 18H20.1022H31.1022M9.10225 18V29H26.1022M31.1022 18V29H26.1022M14.1022 28.5C14.1022 28.5 14.1071 22.0869 14.1022 22C14.0974 21.9131 26.1125 21.9394 26.1022 22C26.092 22.0606 26.1022 29 26.1022 29" stroke="#84CC16" stroke-width="2"/>
<path fill-rule="evenodd" clip-rule="evenodd" d="M20 0C8.95431 0 0 8.95431 0 20C0 31.0457 8.95431 40 20 40C31.0457 40 40 31.0457 40 20C40 8.95431 31.0457 0 20 0ZM20 2C10.0589 2 2 10.0589 2 20C2 29.9411 10.0589 38 20 38C29.9411 38 38 29.9411 38 20C38 10.0589 29.9411 2 20 2Z" fill="white"/>
</svg>
