<svg width="50" height="50" viewBox="0 0 50 50" fill="none" xmlns="http://www.w3.org/2000/svg">
<path d="M17.0071 28.8887L17.3029 28.5686C17.5079 28.3629 17.7121 28.1566 17.9319 27.9672C18.1445 27.7699 18.3754 27.594 18.6021 27.4147C18.8357 27.244 19.0684 27.0726 19.314 26.9206C19.5525 26.758 19.808 26.6237 20.056 26.4783C20.3134 26.3501 20.5644 26.2089 20.8287 26.0976L21.2221 25.9245C21.3541 25.8694 21.4891 25.8218 21.6225 25.7703C21.8879 25.6633 22.1615 25.5818 22.4327 25.4949C22.7034 25.4055 22.9819 25.3455 23.2557 25.2695C23.5321 25.2047 23.8107 25.1514 24.0877 25.0922L24.0976 25.0899L24.1127 25.0879C24.3885 25.0506 24.713 24.9652 25.0087 24.8672C25.3099 24.7676 25.6072 24.649 25.8957 24.5103C26.1861 24.3747 26.4676 24.2193 26.7415 24.0507C27.0142 23.8802 27.2826 23.7003 27.5361 23.5002C27.6658 23.4036 27.7911 23.3013 27.913 23.1947C28.0381 23.0921 28.158 22.9832 28.2749 22.8707C28.395 22.7617 28.511 22.648 28.6218 22.5293C28.7352 22.4129 28.849 22.2968 28.9535 22.1718C29.1723 21.931 29.3718 21.673 29.5719 21.4152C29.7618 21.1498 29.9531 20.8843 30.1237 20.6047C30.3057 20.3322 30.4563 20.0403 30.6195 19.7556C30.7652 19.4617 30.9237 19.1732 31.0515 18.8698C31.1176 18.7193 31.1879 18.5699 31.2513 18.4182L31.4315 17.958C31.559 17.6536 31.6507 17.3363 31.7615 17.0251C31.8634 16.7111 31.949 16.3917 32.0437 16.0748L32.279 15.1106L32.4737 14.1363L32.6319 13.1541C32.6319 13.1541 29.663 15.7395 24.805 16.2806C15.1995 17.3506 15.0741 24.5238 15.0741 24.5238C15.0108 26.8048 15.4764 28.5543 16.213 29.8972C16.374 29.6647 16.5467 29.4402 16.725 29.2209C16.8191 29.1103 16.9106 28.9972 17.0071 28.8887Z" fill="#3F6212"/>
<path d="M32.6322 13.1543L32.5161 14.1431L32.3628 15.1274L32.1683 16.1057C32.0869 16.428 32.0146 16.7534 31.9254 17.0742C31.8277 17.3926 31.7483 17.7171 31.6328 18.0304L31.47 18.5042C31.4124 18.6607 31.3481 18.8149 31.2873 18.9707C31.1707 19.2843 31.0224 19.5847 30.8862 19.8909C30.7327 20.1885 30.5911 20.4935 30.4166 20.7808C30.2541 21.0751 30.0695 21.3562 29.8853 21.6385C29.6905 21.9132 29.4955 22.1889 29.2792 22.4486C29.176 22.5828 29.0631 22.7088 28.9504 22.835C28.8401 22.9636 28.7243 23.087 28.6038 23.2066C28.4869 23.3292 28.3662 23.4484 28.2396 23.5619C28.1166 23.679 27.9899 23.7921 27.8577 23.8997C27.5999 24.1216 27.3249 24.3239 27.0434 24.517C26.7604 24.7086 26.4678 24.8866 26.1634 25.0451C25.8608 25.2067 25.5465 25.3485 25.2231 25.4711C24.8939 25.5936 24.5795 25.6973 24.2003 25.7659L24.2251 25.7617C23.9628 25.8301 23.6991 25.8921 23.4388 25.9651C23.1818 26.0489 22.9196 26.1167 22.6677 26.2126C22.4149 26.3058 22.16 26.3931 21.9157 26.5047C21.7924 26.5585 21.6678 26.6084 21.5462 26.6651L21.1858 26.8428C20.9434 26.9567 20.7164 27.099 20.4828 27.2273C20.2591 27.3727 20.028 27.5061 19.8149 27.6657C19.5949 27.8151 19.3884 27.9821 19.181 28.1471C18.9805 28.3209 18.7762 28.4897 18.5904 28.6785C18.3972 28.8594 18.2199 29.0557 18.0415 29.2497L17.7857 29.552C17.7024 29.6543 17.6239 29.7607 17.5428 29.8643C17.3857 30.0759 17.2337 30.2912 17.0939 30.5146C17.0133 30.6401 16.9366 30.7681 16.8623 30.8974C19.276 34.0581 23.2704 34.3019 23.2704 34.3019C32.3977 34.1793 32.9677 26.0673 32.9677 26.0673C33.7478 19.713 32.6322 13.1543 32.6322 13.1543Z" fill="#3F6212"/>
<path d="M17.2443 30.3352C17.0768 30.5731 16.9191 30.8187 16.7726 31.0704C16.6231 31.3206 16.4864 31.5784 16.3576 31.8402C16.2286 32.1021 16.1108 32.3695 16.0024 32.6414C15.8937 32.9131 15.7974 33.1907 15.7106 33.4729C15.6247 33.7602 15.5503 34.0331 15.4929 34.3599C15.4914 34.3685 15.4897 34.3795 15.4886 34.3883C15.4444 34.7319 15.6871 35.0466 16.0308 35.091C16.3747 35.135 16.6891 34.8925 16.7333 34.5485L16.7348 34.5373C16.7632 34.3165 16.8203 34.0495 16.8836 33.8033C16.9494 33.5527 17.0239 33.3025 17.1108 33.0556C17.1971 32.8085 17.2924 32.5639 17.3982 32.3237C17.504 32.0834 17.6168 31.8454 17.7421 31.6143C17.7951 31.5135 17.8509 31.4141 17.9076 31.3152C17.6747 31.0102 17.457 30.6772 17.2586 30.3154C17.2541 30.3221 17.2489 30.3284 17.2443 30.3352Z" fill="#3F6212"/>
<path d="M6.52625 17.1954C6.48398 17.1954 6.4411 17.1868 6.40006 17.1686C6.24162 17.0987 6.16951 16.9137 6.23929 16.7554C6.32382 16.5633 6.41103 16.3735 6.50128 16.1848C6.57607 16.0285 6.76306 15.9623 6.91971 16.0373C7.07597 16.112 7.1421 16.2991 7.06732 16.4554C6.97998 16.6382 6.89521 16.8224 6.81348 17.0082C6.76168 17.1254 6.64671 17.1954 6.52625 17.1954ZM5.91675 18.7528C5.88278 18.7528 5.84853 18.747 5.81467 18.7356C5.65086 18.6793 5.56387 18.5008 5.62002 18.337C5.71213 18.0691 5.81076 17.8008 5.91325 17.5394C5.97632 17.3779 6.15887 17.2985 6.31956 17.3618C6.48093 17.425 6.56048 17.6068 6.49726 17.7682C6.39802 18.0214 6.3024 18.2814 6.21345 18.5408C6.16874 18.671 6.04697 18.7528 5.91675 18.7528ZM5.25107 21.1704C5.22966 21.1704 5.2082 21.1679 5.18652 21.1633C5.01684 21.1281 4.90821 20.9618 4.94376 20.7923C5.05887 20.2409 5.19918 19.6871 5.36048 19.1458C5.41013 18.9797 5.58472 18.8859 5.75074 18.9348C5.91675 18.9843 6.01102 19.1591 5.96157 19.3251C5.80526 19.8497 5.66947 20.3863 5.55752 20.9208C5.52671 21.0686 5.39628 21.1704 5.25107 21.1704ZM4.82291 25.3228C4.64972 25.3228 4.50928 25.1824 4.50928 25.0091C4.50928 23.8754 4.60278 22.7377 4.78712 21.6273C4.81552 21.4564 4.97641 21.3414 5.14793 21.3693C5.31867 21.3977 5.43424 21.5591 5.40586 21.73C5.22717 22.8067 5.13657 23.9098 5.13657 25.0091C5.13657 25.1824 4.99601 25.3228 4.82291 25.3228Z" fill="#3F6212"/>
<path d="M25.0001 45.4953C13.7014 45.4953 4.50928 36.3281 4.50928 25H5.13657C5.13657 35.8595 14.0474 44.8681 25.0001 44.8681C30.4629 44.8681 35.5548 42.6982 39.3375 38.7546L39.7903 39.1874C35.888 43.2559 30.6355 45.4953 25.0001 45.4953Z" fill="#3F6212"/>
<path d="M38.0674 38.2717L41.0289 37.2666L40.419 40.334L38.0674 38.2717Z" fill="#3F6212"/>
<path d="M44.9045 28.6529C44.8875 28.6529 44.8702 28.6514 44.8526 28.6486C44.682 28.6203 44.5664 28.4587 44.5948 28.2879C44.7733 27.2124 44.864 26.1089 44.864 25.0087C44.864 24.8355 45.0044 24.6951 45.1776 24.6951C45.3506 24.6951 45.4912 24.8355 45.4912 25.0087C45.4912 26.1433 45.3979 27.2811 45.2135 28.3905C45.1879 28.544 45.0551 28.6529 44.9045 28.6529ZM44.3398 31.0961C44.3099 31.0961 44.2799 31.092 44.2499 31.0829C44.084 31.0334 43.9897 30.8587 44.039 30.6929C44.1953 30.1683 44.3312 29.6316 44.4431 29.0972C44.4785 28.9275 44.646 28.8193 44.8141 28.8544C44.9839 28.8899 45.0924 29.0561 45.057 29.2256C44.9417 29.777 44.8014 30.3309 44.6401 30.8722C44.5995 31.0082 44.4747 31.0961 44.3398 31.0961ZM43.7952 32.678C43.7572 32.678 43.7186 32.6711 43.681 32.6564C43.5198 32.5933 43.4401 32.4114 43.5031 32.2501C43.6039 31.9924 43.6994 31.7322 43.7871 31.477C43.8436 31.3133 44.0221 31.2263 44.1859 31.2826C44.3495 31.339 44.4366 31.5174 44.3804 31.6811C44.2897 31.9444 44.1912 32.2125 44.0874 32.4783C44.039 32.6021 43.9206 32.678 43.7952 32.678ZM43.2564 33.9263C43.2114 33.9263 43.166 33.9167 43.1229 33.8963C42.9662 33.8222 42.899 33.6353 42.9729 33.4789C43.046 33.3234 43.1175 33.1672 43.187 33.0098C43.2567 32.8513 43.4416 32.7794 43.6003 32.8494C43.7587 32.9194 43.8306 33.1044 43.7606 33.2629C43.6893 33.4249 43.6156 33.5863 43.5402 33.7464C43.4867 33.8597 43.374 33.9263 43.2564 33.9263Z" fill="#3F6212"/>
<path d="M45.4907 25H44.8636C44.8636 13.9062 35.9526 5.14091 24.9999 5.14091C19.5442 5.14091 14.4571 7.31021 10.6756 11.2453L10.2231 10.8118C14.124 6.75248 19.3719 4.51318 24.9999 4.51318C36.2986 4.51318 45.4907 13.75 45.4907 25Z" fill="#3F6212"/>
<path d="M11.9453 11.734L8.98291 12.7361L9.59588 9.66943L11.9453 11.734Z" fill="#3F6212"/>
</svg>
