<svg width="50" height="50" viewBox="0 0 37 37" fill="none" xmlns="http://www.w3.org/2000/svg">
<path d="M12.5853 21.3777L12.8042 21.1408C12.9559 20.9886 13.107 20.8359 13.2697 20.6958C13.427 20.5498 13.5979 20.4196 13.7656 20.2869C13.9385 20.1606 14.1107 20.0338 14.2924 19.9213C14.4689 19.801 14.658 19.7016 14.8415 19.594C15.032 19.4991 15.2177 19.3946 15.4133 19.3123L15.7044 19.1842C15.8021 19.1434 15.902 19.1082 16.0007 19.0701C16.1971 18.9909 16.3996 18.9306 16.6003 18.8663C16.8006 18.8001 17.0067 18.7557 17.2093 18.6995C17.4138 18.6515 17.62 18.6121 17.825 18.5683L17.8323 18.5666L17.8435 18.5651C18.0476 18.5375 18.2877 18.4743 18.5065 18.4018C18.7294 18.3281 18.9494 18.2403 19.1629 18.1377C19.3778 18.0373 19.5861 17.9223 19.7888 17.7976C19.9906 17.6714 20.1892 17.5383 20.3768 17.3902C20.4728 17.3187 20.5655 17.243 20.6557 17.1641C20.7483 17.0882 20.837 17.0076 20.9235 16.9244C21.0124 16.8437 21.0982 16.7596 21.1802 16.6717C21.2641 16.5856 21.3483 16.4997 21.4257 16.4072C21.5876 16.229 21.7352 16.0381 21.8833 15.8473C22.0238 15.6509 22.1654 15.4544 22.2916 15.2475C22.4263 15.0459 22.5377 14.8299 22.6585 14.6192C22.7663 14.4017 22.8836 14.1882 22.9782 13.9637C23.0271 13.8523 23.0791 13.7418 23.126 13.6295L23.2594 13.289C23.3537 13.0637 23.4216 12.8289 23.5036 12.5986C23.579 12.3663 23.6423 12.1299 23.7124 11.8954L23.8865 11.1819L24.0306 10.4609L24.1477 9.73405C24.1477 9.73405 21.9507 11.6473 18.3558 12.0477C11.2477 12.8395 11.1549 18.1477 11.1549 18.1477C11.1081 19.8356 11.4526 21.1302 11.9977 22.124C12.1168 21.9519 12.2446 21.7858 12.3766 21.6235C12.4462 21.5417 12.5139 21.458 12.5853 21.3777Z" fill="#84CC16"/>
<path d="M24.1477 9.73409L24.0618 10.4658L23.9484 11.1942L23.8044 11.9181C23.7442 12.1566 23.6907 12.3974 23.6247 12.6348C23.5524 12.8704 23.4936 13.1106 23.4082 13.3424L23.2877 13.693C23.2451 13.8088 23.1975 13.9229 23.1525 14.0382C23.0662 14.2703 22.9565 14.4926 22.8557 14.7192C22.7421 14.9394 22.6373 15.1651 22.5082 15.3777C22.3879 15.5955 22.2513 15.8035 22.115 16.0124C21.9709 16.2157 21.8266 16.4197 21.6665 16.6119C21.5901 16.7112 21.5066 16.8044 21.4232 16.8978C21.3416 16.993 21.2559 17.0843 21.1667 17.1728C21.0802 17.2635 20.9909 17.3517 20.8972 17.4357C20.8062 17.5224 20.7124 17.6061 20.6146 17.6857C20.4238 17.8499 20.2203 17.9996 20.012 18.1425C19.8026 18.2843 19.5861 18.416 19.3608 18.5333C19.1369 18.6529 18.9043 18.7578 18.665 18.8485C18.4214 18.9392 18.1887 19.0159 17.9081 19.0667L17.9265 19.0636C17.7324 19.1142 17.5372 19.1601 17.3446 19.2141C17.1544 19.2761 16.9604 19.3263 16.774 19.3972C16.5869 19.4662 16.3983 19.5308 16.2175 19.6134C16.1263 19.6532 16.0341 19.6901 15.9441 19.7321L15.6774 19.8636C15.498 19.9479 15.33 20.0532 15.1572 20.1481C14.9916 20.2557 14.8206 20.3544 14.6629 20.4725C14.5001 20.5831 14.3473 20.7067 14.1938 20.8288C14.0455 20.9574 13.8943 21.0823 13.7568 21.222C13.6138 21.3559 13.4826 21.5011 13.3506 21.6447L13.1613 21.8684C13.0997 21.9441 13.0416 22.0228 12.9816 22.0995C12.8653 22.2561 12.7528 22.4154 12.6494 22.5807C12.5897 22.6736 12.533 22.7683 12.478 22.864C14.2641 25.2029 17.22 25.3833 17.22 25.3833C23.9742 25.2926 24.396 19.2897 24.396 19.2897C24.9733 14.5875 24.1477 9.73409 24.1477 9.73409Z" fill="#84CC16"/>
<path d="M12.7608 22.4481C12.6369 22.6242 12.5202 22.8059 12.4118 22.9922C12.3011 23.1773 12.2 23.3681 12.1047 23.5618C12.0092 23.7556 11.922 23.9535 11.8418 24.1547C11.7614 24.3558 11.6901 24.5612 11.6259 24.77C11.5623 24.9826 11.5073 25.1846 11.4648 25.4264C11.4637 25.4328 11.4624 25.4409 11.4616 25.4474C11.4289 25.7017 11.6085 25.9346 11.8628 25.9674C12.1173 26 12.35 25.8205 12.3827 25.566L12.3838 25.5577C12.4048 25.3943 12.4471 25.1967 12.4939 25.0145C12.5426 24.8291 12.5977 24.6439 12.662 24.4612C12.7259 24.2784 12.7964 24.0974 12.8747 23.9196C12.953 23.7418 13.0365 23.5657 13.1292 23.3947C13.1684 23.3201 13.2097 23.2465 13.2517 23.1733C13.0793 22.9476 12.9182 22.7012 12.7714 22.4335C12.7681 22.4384 12.7642 22.4431 12.7608 22.4481Z" fill="#84CC16"/>
<path d="M4.82947 12.7245C4.79819 12.7245 4.76646 12.7182 4.73609 12.7047C4.61884 12.653 4.56548 12.5161 4.61712 12.3989C4.67967 12.2568 4.74421 12.1163 4.81099 11.9767C4.86634 11.861 5.00471 11.812 5.12063 11.8675C5.23626 11.9228 5.2852 12.0613 5.22986 12.1769C5.16523 12.3122 5.1025 12.4485 5.04202 12.586C5.00369 12.6727 4.91861 12.7245 4.82947 12.7245ZM4.37844 13.877C4.3533 13.877 4.32796 13.8727 4.3029 13.8643C4.18168 13.8226 4.11731 13.6905 4.15886 13.5693C4.22702 13.3711 4.30001 13.1725 4.37585 12.9791C4.42252 12.8596 4.55761 12.8008 4.67652 12.8477C4.79593 12.8944 4.8548 13.029 4.80802 13.1484C4.73458 13.3358 4.66382 13.5282 4.598 13.7201C4.56491 13.8165 4.4748 13.877 4.37844 13.877ZM3.88584 15.666C3.86999 15.666 3.85411 15.6642 3.83807 15.6608C3.71251 15.6347 3.63212 15.5117 3.65843 15.3862C3.74361 14.9782 3.84744 14.5684 3.9668 14.1678C4.00354 14.0449 4.13274 13.9755 4.25559 14.0117C4.37844 14.0483 4.4482 14.1777 4.41161 14.3005C4.29594 14.6887 4.19545 15.0858 4.11261 15.4813C4.08981 15.5907 3.99329 15.666 3.88584 15.666ZM3.569 18.7388C3.44084 18.7388 3.33691 18.6349 3.33691 18.5067C3.33691 17.6677 3.4061 16.8258 3.54251 16.0041C3.56353 15.8777 3.68259 15.7926 3.80951 15.8132C3.93586 15.8342 4.02138 15.9537 4.00038 16.0801C3.86815 16.8769 3.80111 17.6932 3.80111 18.5067C3.80111 18.6349 3.69709 18.7388 3.569 18.7388Z" fill="#84CC16"/>
<path d="M18.5001 33.6665C10.1391 33.6665 3.33691 26.8828 3.33691 18.5H3.80111C3.80111 26.536 10.3951 33.2024 18.5001 33.2024C22.5426 33.2024 26.3106 31.5967 29.1098 28.6784L29.4449 28.9987C26.5572 32.0094 22.6703 33.6665 18.5001 33.6665Z" fill="#84CC16"/>
<path d="M28.1697 28.3211L30.3612 27.5773L29.9099 29.8472L28.1697 28.3211Z" fill="#84CC16"/>
<path d="M33.2292 21.2032C33.2166 21.2032 33.2038 21.2021 33.1908 21.2C33.0645 21.1791 32.979 21.0595 33 20.9331C33.1321 20.1372 33.1992 19.3206 33.1992 18.5065C33.1992 18.3783 33.3031 18.2744 33.4313 18.2744C33.5593 18.2744 33.6633 18.3783 33.6633 18.5065C33.6633 19.3461 33.5943 20.1881 33.4578 21.009C33.4389 21.1226 33.3406 21.2032 33.2292 21.2032ZM32.8113 23.0112C32.7892 23.0112 32.767 23.0081 32.7448 23.0014C32.622 22.9648 32.5522 22.8355 32.5887 22.7128C32.7044 22.3246 32.8049 21.9274 32.8877 21.532C32.9139 21.4064 33.0379 21.3263 33.1623 21.3523C33.2879 21.3786 33.3682 21.5016 33.342 21.627C33.2567 22.035 33.1529 22.4449 33.0335 22.8455C33.0035 22.9461 32.9111 23.0112 32.8113 23.0112ZM32.4083 24.1818C32.3802 24.1818 32.3516 24.1767 32.3238 24.1658C32.2045 24.1191 32.1455 23.9845 32.1921 23.8651C32.2667 23.6744 32.3374 23.4819 32.4023 23.293C32.4441 23.1719 32.5762 23.1075 32.6974 23.1492C32.8185 23.1909 32.8829 23.3229 32.8413 23.4441C32.7742 23.6389 32.7013 23.8373 32.6245 24.034C32.5887 24.1256 32.5011 24.1818 32.4083 24.1818ZM32.0096 25.1055C31.9763 25.1055 31.9427 25.0984 31.9108 25.0833C31.7948 25.0285 31.7451 24.8902 31.7998 24.7744C31.8539 24.6594 31.9068 24.5438 31.9582 24.4273C32.0098 24.31 32.1466 24.2568 32.2641 24.3086C32.3813 24.3604 32.4345 24.4973 32.3827 24.6146C32.3299 24.7345 32.2754 24.8539 32.2196 24.9724C32.18 25.0562 32.0966 25.1055 32.0096 25.1055Z" fill="#84CC16"/>
<path d="M33.6632 18.5H33.1991C33.1991 10.2906 26.605 3.80429 18.5 3.80429C14.4628 3.80429 10.6983 5.40957 7.90004 8.32153L7.56519 8.00073C10.4518 4.99685 14.3353 3.33977 18.5 3.33977C26.861 3.33977 33.6632 10.175 33.6632 18.5Z" fill="#84CC16"/>
<path d="M8.8396 8.68318L6.64746 9.4248L7.10106 7.15543L8.8396 8.68318Z" fill="#84CC16"/>
</svg>
