<svg width="50" height="50" viewBox="0 0 50 50" fill="none" xmlns="http://www.w3.org/2000/svg">
<g clip-path="url(#clip0_65_38)">
<mask id="mask0_65_38" style="mask-type:luminance" maskUnits="userSpaceOnUse" x="0" y="0" width="50" height="50">
<path d="M50 0H0V50H50V0Z" fill="white"/>
</mask>
<g mask="url(#mask0_65_38)">
<path d="M31.4513 38.221H25.9471V30.2101C27.5327 29.7249 28.7481 28.2187 28.7481 26.4374C28.7481 24.2649 26.976 22.5002 24.8054 22.5002C22.6348 22.5002 20.869 24.2649 20.869 26.4374C20.869 28.2186 22.0962 29.7248 23.6819 30.2101V38.221H18.1487C17.5271 38.221 17.0234 38.6754 17.0234 39.2971C17.0234 39.9186 17.5271 40.373 18.1487 40.373H31.4513C32.0728 40.373 32.5765 39.9186 32.5765 39.2971C32.5765 38.6754 32.0728 38.221 31.4513 38.221ZM23.1131 26.4375C23.1131 25.5062 23.8707 24.7487 24.8 24.7487C25.7293 24.7487 26.4868 25.5081 26.4868 26.4375C26.4868 27.3689 25.7293 28.1265 24.8 28.1265C23.8707 28.1265 23.1131 27.3669 23.1131 26.4375Z" fill="#3F6212"/>
<path d="M30.3079 42.8645H19.2918C18.6701 42.8645 18.1665 43.3745 18.1665 43.9962C18.1665 44.6177 18.6701 45.1298 19.2918 45.1298H30.3079C30.9295 45.1298 31.4332 44.6177 31.4332 43.9962C31.4332 43.3766 30.9295 42.8645 30.3079 42.8645Z" fill="#3F6212"/>
<path d="M29.6925 47.7346H19.9075C19.286 47.7346 18.7822 48.2457 18.7822 48.8672C18.7822 49.4889 19.286 49.9998 19.9075 49.9998H29.6925C30.3142 49.9998 30.8178 49.4889 30.8178 48.8672C30.8178 48.2457 30.3142 47.7346 29.6925 47.7346Z" fill="#3F6212"/>
<path d="M24.8001 10.2568C17.1815 10.2568 10.9839 16.4544 10.9839 24.071C10.9839 29.693 14.3635 34.5316 19.1941 36.686C20.8829 37.4836 22.0841 35.5789 20.5151 34.8054C16.2542 33.0986 13.2324 28.9336 13.2324 24.071C13.2324 17.6956 18.4206 12.5052 24.7982 12.5052C31.1736 12.5052 36.362 17.6956 36.362 24.071C36.362 28.9175 33.36 33.0725 29.1212 34.7894C27.5901 35.403 28.3517 37.5694 30.4182 36.678C35.2388 34.5197 38.6104 29.6869 38.6104 24.071C38.6144 16.4544 32.4167 10.2568 24.8001 10.2568Z" fill="#3F6212"/>
<path d="M24.7015 8.05823C25.363 8.05823 25.9474 7.52261 25.9474 6.86105V1.1991C25.9474 0.537539 25.365 0 24.7015 0C24.04 0 23.4556 0.537653 23.4556 1.1991V6.85902C23.4556 7.52058 24.038 8.05823 24.7015 8.05823Z" fill="#3F6212"/>
<path d="M7.38448 23.4966H1.72255C1.06098 23.4966 0.523438 24.0243 0.523438 24.6858C0.523438 25.3473 1.06109 25.8751 1.72255 25.8751H7.38448C8.04797 25.8751 8.58359 25.3493 8.58359 24.6858C8.58359 24.0243 8.04592 23.4966 7.38448 23.4966Z" fill="#3F6212"/>
<path d="M11.4531 12.5414C11.9208 13.009 12.6802 13.009 13.148 12.5414C13.6177 12.0737 13.6177 11.3143 13.148 10.8465L9.14474 6.84343C8.67709 6.37576 7.91767 6.37576 7.44991 6.84343C6.98214 7.31108 6.98224 8.0705 7.44991 8.53827L11.4531 12.5414Z" fill="#3F6212"/>
<path d="M48.2771 23.4966H42.6151C41.9516 23.4966 41.416 24.0243 41.416 24.6858C41.416 25.3493 41.9516 25.8751 42.6151 25.8751H48.2771C48.9386 25.8751 49.4762 25.3473 49.4762 24.6858C49.4762 24.0243 48.9386 23.4966 48.2771 23.4966Z" fill="#3F6212"/>
<path d="M38.5446 12.5414L42.5476 8.53827C43.0153 8.07061 43.0153 7.31108 42.5476 6.84343C42.0779 6.37576 41.3206 6.37576 40.8527 6.84343L36.8497 10.8465C36.3821 11.3142 36.3821 12.0736 36.8497 12.5414C37.3174 13.009 38.0768 13.009 38.5446 12.5414Z" fill="#3F6212"/>
</g>
</g>
<defs>
<clipPath id="clip0_65_38">
<rect width="50" height="50" fill="white"/>
</clipPath>
</defs>
</svg>
