<svg width="50" height="50" viewBox="0 0 33 33" fill="none" xmlns="http://www.w3.org/2000/svg">
<g clip-path="url(#clip0_120_189)">
<path d="M20.758 25.2258H17.1252V19.9386C18.1717 19.6184 18.9739 18.6243 18.9739 17.4486C18.9739 16.0148 17.8043 14.8501 16.3717 14.8501C14.9391 14.8501 13.7737 16.0148 13.7737 17.4486C13.7737 18.6242 14.5836 19.6183 15.6302 19.9386V25.2258H11.9783C11.568 25.2258 11.2356 25.5257 11.2356 25.936C11.2356 26.3462 11.568 26.6461 11.9783 26.6461H20.758C21.1682 26.6461 21.5006 26.3462 21.5006 25.936C21.5006 25.5257 21.1682 25.2258 20.758 25.2258ZM15.2548 17.4487C15.2548 16.834 15.7548 16.3341 16.3681 16.3341C16.9815 16.3341 17.4814 16.8353 17.4814 17.4487C17.4814 18.0634 16.9815 18.5634 16.3681 18.5634C15.7548 18.5634 15.2548 18.0621 15.2548 17.4487Z" fill="#84CC16"/>
<path d="M20.0033 28.2905H12.7327C12.3224 28.2905 11.99 28.6271 11.99 29.0374C11.99 29.4476 12.3224 29.7856 12.7327 29.7856H20.0033C20.4136 29.7856 20.746 29.4476 20.746 29.0374C20.746 28.6285 20.4136 28.2905 20.0033 28.2905Z" fill="#84CC16"/>
<path d="M19.597 31.5049H13.1389C12.7287 31.5049 12.3962 31.8422 12.3962 32.2524C12.3962 32.6627 12.7287 32.9999 13.1389 32.9999H19.597C20.0073 32.9999 20.3397 32.6627 20.3397 32.2524C20.3397 31.8422 20.0073 31.5049 19.597 31.5049Z" fill="#84CC16"/>
<path d="M16.368 6.76953C11.3397 6.76953 7.24927 10.8599 7.24927 15.8869C7.24927 19.5974 9.47981 22.7909 12.668 24.2128C13.7826 24.7392 14.5754 23.4821 13.5399 22.9716C10.7277 21.8451 8.73326 19.0962 8.73326 15.8869C8.73326 11.6791 12.1575 8.25345 16.3667 8.25345C20.5745 8.25345 23.9988 11.6791 23.9988 15.8869C23.9988 19.0856 22.0175 21.8279 19.2199 22.961C18.2094 23.366 18.712 24.7958 20.0759 24.2075C23.2575 22.783 25.4828 19.5934 25.4828 15.8869C25.4854 10.8599 21.3949 6.76953 16.368 6.76953Z" fill="#84CC16"/>
<path d="M16.303 5.31843C16.7396 5.31843 17.1253 4.96492 17.1253 4.52829V0.791406C17.1253 0.354776 16.7409 0 16.303 0C15.8664 0 15.4807 0.354851 15.4807 0.791406V4.52695C15.4807 4.96358 15.8651 5.31843 16.303 5.31843Z" fill="#84CC16"/>
<path d="M4.87375 15.5078H1.13687C0.700235 15.5078 0.345459 15.8561 0.345459 16.2927C0.345459 16.7293 0.70031 17.0776 1.13687 17.0776H4.87375C5.31165 17.0776 5.66516 16.7306 5.66516 16.2927C5.66516 15.8561 5.3103 15.5078 4.87375 15.5078Z" fill="#84CC16"/>
<path d="M7.5592 8.2773C7.86785 8.58596 8.36907 8.58596 8.6778 8.2773C8.98779 7.96865 8.98779 7.46743 8.6778 7.1587L6.03566 4.51665C5.72701 4.20799 5.22579 4.20799 4.91707 4.51665C4.60834 4.8253 4.60841 5.32652 4.91707 5.63525L7.5592 8.2773Z" fill="#84CC16"/>
<path d="M31.863 15.5078H28.1261C27.6882 15.5078 27.3347 15.8561 27.3347 16.2927C27.3347 16.7306 27.6882 17.0776 28.1261 17.0776H31.863C32.2996 17.0776 32.6544 16.7293 32.6544 16.2927C32.6544 15.8561 32.2996 15.5078 31.863 15.5078Z" fill="#84CC16"/>
<path d="M25.4394 8.2773L28.0814 5.63525C28.3901 5.32659 28.3901 4.8253 28.0814 4.51665C27.7714 4.20799 27.2716 4.20799 26.9628 4.51665L24.3208 7.1587C24.0122 7.46736 24.0122 7.96857 24.3208 8.2773C24.6295 8.58596 25.1307 8.58596 25.4394 8.2773Z" fill="#84CC16"/>
</g>
<defs>
<clipPath id="clip0_120_189">
<rect width="33" height="33" fill="white"/>
</clipPath>
</defs>
</svg>
