<svg width="99" height="91" viewBox="0 0 99 91" fill="none" xmlns="http://www.w3.org/2000/svg">
<path d="M83.4939 73.98C84.8091 73.98 85.8794 73.0037 85.8794 71.8041C85.8794 70.6044 84.8091 69.6282 83.4939 69.6282C82.1786 69.6282 81.1083 70.6044 81.1083 71.8041C81.1083 73.0037 82.1786 73.98 83.4939 73.98ZM83.4939 71.0788C83.9328 71.0788 84.289 71.4045 84.289 71.8041C84.289 72.2037 83.9328 72.5294 83.4939 72.5294C83.0549 72.5294 82.6987 72.2037 82.6987 71.8041C82.6987 71.4045 83.0549 71.0788 83.4939 71.0788Z" fill="#84CC16"/>
<path d="M14.3132 69.6282C12.998 69.6282 11.9276 70.6044 11.9276 71.8041C11.9276 73.0037 12.998 73.98 14.3132 73.98C15.6284 73.98 16.6987 73.0037 16.6987 71.8041C16.6987 70.6044 15.6284 69.6282 14.3132 69.6282ZM14.3132 72.5294C13.8742 72.5294 13.518 72.2037 13.518 71.8041C13.518 71.4045 13.8742 71.0788 14.3132 71.0788C14.7521 71.0788 15.1084 71.4045 15.1084 71.8041C15.1084 72.2037 14.7521 72.5294 14.3132 72.5294Z" fill="#84CC16"/>
<path d="M81.1083 17.4071C81.1083 18.6068 82.1786 19.583 83.4939 19.583C84.8091 19.583 85.8794 18.6068 85.8794 17.4071C85.8794 16.2075 84.8091 15.2312 83.4939 15.2312C82.1786 15.2312 81.1083 16.2075 81.1083 17.4071ZM84.289 17.4071C84.289 17.8068 83.9328 18.1324 83.4939 18.1324C83.0549 18.1324 82.6987 17.8068 82.6987 17.4071C82.6987 17.0075 83.0549 16.6818 83.4939 16.6818C83.9328 16.6818 84.289 17.0075 84.289 17.4071Z" fill="#84CC16"/>
<path d="M14.3132 19.583C15.6284 19.583 16.6987 18.6068 16.6987 17.4071C16.6987 16.2075 15.6284 15.2312 14.3132 15.2312C12.998 15.2312 11.9276 16.2075 11.9276 17.4071C11.9276 18.6068 12.998 19.583 14.3132 19.583ZM14.3132 16.6818C14.7521 16.6818 15.1084 17.0075 15.1084 17.4071C15.1084 17.8068 14.7521 18.1324 14.3132 18.1324C13.8742 18.1324 13.518 17.8068 13.518 17.4071C13.518 17.0075 13.8742 16.6818 14.3132 16.6818Z" fill="#84CC16"/>
<path d="M32.9805 53.5967L15.86 67.593C15.2715 67.3934 14.6388 67.2787 13.9749 67.2787C13.9594 67.2787 13.9447 67.2808 13.9299 67.2808L4.43606 56.1545C3.81572 55.5358 2.99507 55.208 2.21789 55.208C1.74118 55.208 1.28077 55.3319 0.893346 55.5882C0.451573 55.8806 -0.856662 57.0501 0.860738 59.8161L3.9648 64.7718C4.80642 66.3081 5.68763 67.8196 6.42055 68.461L8.83283 70.6606C8.65193 71.1534 8.54944 71.6787 8.54944 72.2266C8.54944 74.9544 10.9835 77.1738 13.9749 77.1738C14.2444 77.1738 14.5075 77.1498 14.7661 77.1151L24.2801 88.264C25.2825 89.2622 26.8057 89.5058 27.8236 88.8311C28.2654 88.5387 29.5736 87.3692 27.8562 84.6032L24.7545 79.6517C23.9533 78.1876 23.0324 76.6025 22.2964 75.9583L19.2902 73.2171C19.3624 72.8964 19.3997 72.5643 19.3997 72.2252C19.3997 72.1629 19.3919 72.1027 19.3896 72.0418L33.0503 64.4929C34.2297 68.2762 37.6466 71.2093 41.9161 72.0029L41.9161 72.2167C41.9161 72.2634 41.9215 72.3095 41.9316 72.3555C42.2794 73.9413 43.8695 75.0485 45.7981 75.0485L52.0093 75.0485C53.9379 75.0485 55.5279 73.9413 55.8758 72.3555C55.8859 72.3094 55.8913 72.2634 55.8913 72.2167L55.8913 72.0029C60.1553 71.21 63.5691 68.2819 64.7524 64.49L77.688 71.639C77.6647 71.8259 77.6492 72.0149 77.6492 72.2082C77.6492 72.7491 77.7486 73.2687 77.9256 73.7565L75.5218 75.9484C74.7742 76.6025 73.8541 78.1876 73.056 79.6482L69.9488 84.606C68.233 87.3692 69.5412 88.5387 69.983 88.8311C71.0016 89.5072 72.5249 89.2622 73.5661 88.2208L83.0071 77.1519C83.0296 77.1519 83.0514 77.1547 83.0747 77.1547C86.0661 77.1547 88.4994 74.9353 88.4994 72.2075C88.4994 71.8606 88.459 71.5229 88.3845 71.1958L91.3744 68.4695C92.119 67.8182 93.0002 66.306 93.8402 64.7697L96.9474 59.8118C98.6633 57.0487 97.355 55.8791 96.9132 55.5868C96.5297 55.3326 96.074 55.2087 95.6003 55.2087C94.8154 55.2087 93.9792 55.5478 93.3302 56.197L83.8456 67.3162C83.5933 67.2836 83.3379 67.261 83.0754 67.261C82.6127 67.261 82.1647 67.3198 81.7354 67.4196L64.8269 53.5967L64.0016 36.2906L81.7354 21.793C82.1647 21.8929 82.6119 21.9516 83.0754 21.9516C83.3379 21.9516 83.5941 21.929 83.8464 21.8957L93.3697 33.0581C94.3721 34.057 95.8946 34.2991 96.9132 33.6252C97.355 33.3328 98.6633 32.1632 96.9458 29.3972L93.8426 24.4429C93.001 22.9067 92.1197 21.3945 91.386 20.7523L88.3845 18.0154C88.459 17.689 88.4994 17.3506 88.4994 17.0037C88.4994 14.2759 86.0654 12.0565 83.0747 12.0565C83.0521 12.0565 83.0304 12.0593 83.0071 12.0593L73.5257 0.947191C72.9054 0.328432 72.0847 -5.87864e-05 71.3075 -5.87185e-05C70.8308 -5.86768e-05 70.3704 0.123835 69.983 0.380114C69.5412 0.673213 68.233 1.84205 69.9504 4.60804L73.0521 9.55951C73.8533 11.0236 74.7742 12.6087 75.5102 13.2529L77.9256 15.4554C77.7485 15.9432 77.6492 16.4628 77.6492 17.0037C77.6492 17.1963 77.6647 17.3853 77.688 17.5729L62.7935 25.805C61.5039 23.5205 58.8975 21.9516 55.8913 21.9516L41.9161 21.9516C38.9067 21.9516 36.2972 23.5247 35.0092 25.8029L20.1365 17.5835C20.1605 17.3931 20.1768 17.2012 20.1768 17.0051C20.1768 16.4593 20.0759 15.9354 19.8958 15.4441L22.2855 13.265C23.0332 12.6108 23.9532 11.0257 24.7514 9.56518L27.8585 4.60734C29.5744 1.84418 28.2662 0.674628 27.8244 0.382239C27.4408 0.128081 26.9851 0.00419473 26.5115 0.00419477C25.7265 0.00419484 24.8904 0.343306 24.2413 0.992499L14.8002 12.0607C14.7839 12.0607 14.7684 12.0586 14.7521 12.0586C11.7599 12.0586 9.32662 14.2781 9.32662 17.0058C9.32662 17.5481 9.426 18.0692 9.60379 18.5577L7.21713 20.7339C6.47257 21.3853 5.59136 22.8975 4.75128 24.4337L1.64412 29.3916C-0.0717213 32.1547 1.23652 33.3243 1.67829 33.6167C2.69693 34.2928 4.22023 34.0478 5.26138 33.0064L14.6923 21.9495C14.7125 21.9495 14.7319 21.9523 14.7513 21.9523C15.2086 21.9523 15.6512 21.895 16.0759 21.7973L33.805 36.2899L32.9805 53.5967ZM7.50751 67.4486C6.85378 66.8766 5.76449 64.8872 5.35455 64.1382C5.34834 64.1262 5.32272 64.0794 5.31495 64.0681L2.2109 59.1145C1.40577 57.8175 1.42673 56.9836 1.80639 56.7322C2.13015 56.5184 2.80252 56.6211 3.25205 57.0657L12.1993 67.5555C11.1372 67.8925 10.2265 68.5205 9.57973 69.3367L7.50751 67.4486ZM10.1022 72.2252C10.1022 70.2783 11.8391 68.6939 13.9749 68.6939C16.11 68.6939 17.8469 70.2776 17.8469 72.2252C17.8469 74.1728 16.1108 75.7565 13.9757 75.7565C11.8398 75.7565 10.1022 74.1728 10.1022 72.2252ZM21.2102 76.9699C21.8647 77.5427 22.9548 79.5342 23.3647 80.2839C23.3717 80.2959 23.395 80.3384 23.4028 80.3497L26.5068 85.3033C27.312 86.6003 27.2902 87.4343 26.9113 87.6856C26.5922 87.8994 25.9175 87.7982 25.4665 87.3522L16.3515 76.6662C17.3321 76.228 18.1473 75.5307 18.6869 74.6691L21.2102 76.9699ZM19.0767 70.5594C18.725 69.6666 18.1015 68.8936 17.2956 68.3215L32.8865 55.5761L32.5993 61.5973C32.5993 62.0816 32.6474 62.5545 32.7165 63.0217L19.0767 70.5594ZM52.0093 73.6326L45.7981 73.6326C44.8346 73.6326 43.7678 73.1809 43.4844 72.1813C43.7367 72.1969 43.9883 72.2167 44.2453 72.2167L53.5621 72.2167C53.8191 72.2167 54.0706 72.1969 54.323 72.1813C54.0396 73.1809 52.9728 73.6326 52.0093 73.6326ZM72.3813 87.309C71.8906 87.7975 71.2167 87.8987 70.896 87.6856C70.5171 87.435 70.4946 86.6003 71.299 85.3062L74.4046 80.3504C74.4124 80.3391 74.4356 80.2966 74.4426 80.2846C74.8526 79.5349 75.9434 77.5427 76.6088 76.96L78.6678 75.0825C79.3114 75.9009 80.2206 76.5317 81.2812 76.8715L72.3813 87.309ZM94.5157 57.1096C95.0072 56.6211 95.6811 56.5198 96.001 56.7329C96.3799 56.9836 96.4024 57.8182 95.598 59.1124L92.4924 64.0681C92.4847 64.0794 92.459 64.1262 92.4528 64.1382C92.0429 64.8872 90.9528 66.8766 90.2882 67.4585L87.7758 69.7495C87.2331 68.89 86.4163 68.1948 85.4341 67.7601L94.5157 57.1096ZM86.9474 72.2082C86.9474 74.1551 85.2105 75.7395 83.0754 75.7395C80.9396 75.7395 79.2028 74.1558 79.2028 72.2082C79.2028 70.2606 80.9396 68.6769 83.0754 68.6769C85.2105 68.6769 86.9474 70.2606 86.9474 72.2082ZM80.1663 68.039C79.2664 68.5629 78.5467 69.319 78.1119 70.2174L65.087 63.0189C65.1584 62.5424 65.2081 62.0603 65.2073 61.5662L64.9216 55.5761L80.1663 68.039ZM90.2999 21.764C90.9536 22.3368 92.0429 24.3268 92.4536 25.0758C92.4598 25.0879 92.4846 25.1332 92.4924 25.1445L95.5965 30.0981C96.4016 31.3951 96.3799 32.2291 96.001 32.4804C95.6819 32.6928 95.0072 32.5922 94.5561 32.1462L85.4349 21.4525C86.4171 21.0171 87.2338 20.3226 87.7765 19.4632L90.2999 21.764ZM86.9474 17.0044C86.9474 18.9513 85.2105 20.5357 83.0754 20.5357C80.9396 20.5357 79.2027 18.952 79.2027 17.0044C79.2027 15.0568 80.9396 13.4731 83.0754 13.4731C85.2105 13.4731 86.9474 15.0575 86.9474 17.0044ZM76.5971 12.2427C75.9426 11.6699 74.8526 9.67845 74.4426 8.92872C74.4356 8.91669 74.4123 8.87421 74.4046 8.86288L71.3005 3.90929C70.4954 2.61231 70.5171 1.77834 70.896 1.52701C71.2167 1.31533 71.8898 1.41516 72.3409 1.86046L81.2804 12.3411C80.2198 12.6816 79.3107 13.3117 78.667 14.1301L76.5971 12.2427ZM78.1119 18.9952C78.5467 19.8936 79.2664 20.6497 80.1663 21.1736L63.9146 34.4598L63.6553 29.0312C63.6553 28.3771 63.5497 27.7456 63.3665 27.1438L78.1119 18.9952ZM54.9449 23.3675L54.3626 26.0273C54.1094 26.9477 53.1203 27.6153 52.0093 27.6153L45.7981 27.6153C44.687 27.6153 43.6979 26.9477 43.4533 26.0606L42.8633 23.3675L54.9449 23.3675ZM41.2864 23.3966L41.9401 26.3714C42.3617 27.9126 43.9852 29.0312 45.7981 29.0312L52.0093 29.0312C53.8222 29.0312 55.4456 27.9126 55.8758 26.3381L56.521 23.3966C59.6506 23.6854 62.1025 26.1038 62.1025 29.0617L63.2904 53.9627C63.2904 53.9634 63.2904 53.9648 63.2904 53.9655L63.6553 61.5973C63.6553 62.1722 63.5901 62.7336 63.4783 63.2794C63.4783 63.2801 63.4783 63.2801 63.4783 63.2809C62.6072 67.5534 58.4961 70.8008 53.5621 70.8008L44.2453 70.8008C39.3105 70.8008 35.1986 67.552 34.3283 63.3C34.3267 63.2865 34.3244 63.2745 34.3221 63.261C34.2157 62.7301 34.1521 62.1856 34.1521 61.6278L35.7049 29.0312C35.7049 26.1024 38.156 23.6854 41.2864 23.3966ZM25.4261 1.90365C25.9175 1.41515 26.5922 1.31463 26.9113 1.52701C27.2902 1.77763 27.3127 2.61231 26.5084 3.90646L23.4028 8.86217C23.395 8.8735 23.3717 8.91598 23.3647 8.92802C22.9548 9.67774 21.8639 11.6699 21.1986 12.2526L19.1504 14.1202C18.5037 13.3025 17.593 12.6738 16.5301 12.3361L25.4261 1.90365ZM14.7521 13.4731C16.8872 13.4731 18.624 15.0568 18.624 17.0044C18.624 18.952 16.8872 20.5357 14.7521 20.5357C12.6162 20.5357 10.8794 18.952 10.8794 17.0044C10.8794 15.0568 12.6162 13.4731 14.7521 13.4731ZM4.07659 32.0931C3.58591 32.5823 2.91199 32.6829 2.59133 32.4698C2.21245 32.2192 2.18994 31.3845 2.99429 30.0903L6.09989 25.1346C6.10766 25.1233 6.13328 25.0766 6.13949 25.0645C6.54943 24.3155 7.6395 22.3261 8.30409 21.7442L10.3468 19.8816C10.992 20.7007 11.9027 21.3307 12.9648 21.6706L4.07659 32.0931ZM17.6489 21.18C18.551 20.6575 19.2731 19.9014 19.7102 19.003L34.437 27.1417C34.2569 27.7357 34.1528 28.3565 34.1528 29.0001L33.8927 34.4591L17.6489 21.18Z" fill="#84CC16"/>
<path d="M42.0024 66.3647L55.8045 66.3647C57.9185 66.3647 59.6384 64.7379 59.6384 62.7383L59.6384 56.9359C59.6384 54.9362 57.9185 53.3094 55.8045 53.3094L42.0024 53.3094C39.8884 53.3094 38.1685 54.9362 38.1685 56.9359L38.1685 62.7383C38.1685 64.7379 39.8884 66.3647 42.0024 66.3647ZM39.7021 56.9359C39.7021 55.7362 40.7342 54.76 42.0024 54.76L55.8045 54.76C57.0728 54.76 58.1049 55.7362 58.1049 56.9359L58.1049 62.7383C58.1049 63.9379 57.0728 64.9142 55.8045 64.9142L42.0024 64.9142C40.7342 64.9142 39.7021 63.9379 39.7021 62.7383L39.7021 56.9359Z" fill="#84CC16"/>
</svg>
