<svg width="34" height="34" viewBox="0 0 34 34" fill="none" xmlns="http://www.w3.org/2000/svg">
<path fill-rule="evenodd" clip-rule="evenodd" d="M17 0C7.61116 0 0 7.61116 0 17C0 26.3888 7.61116 34 17 34C26.3888 34 34 26.3888 34 17C34 7.61116 26.3888 0 17 0ZM17 2C8.71573 2 2 8.71573 2 17C2 25.2843 8.71573 32 17 32C25.2843 32 32 25.2843 32 17C32 8.71573 25.2843 2 17 2Z" fill="#FCF6F6"/>
<path d="M15 11H25" stroke="white" stroke-width="2" stroke-linecap="round"/>
<path d="M8 11H11" stroke="white" stroke-width="2" stroke-linecap="round"/>
<path d="M15 17H25" stroke="white" stroke-width="2" stroke-linecap="round"/>
<path d="M8 17H11" stroke="white" stroke-width="2" stroke-linecap="round"/>
<path d="M15 23H25" stroke="white" stroke-width="2" stroke-linecap="round"/>
<path d="M8 23H11" stroke="white" stroke-width="2" stroke-linecap="round"/>
</svg>
