<svg width="500" height="50" viewBox="0 0 765 50" fill="none" xmlns="http://www.w3.org/2000/svg">
<path d="M437.5 24H737.5" stroke="#8D8B8B" stroke-width="2"/>
<g clip-path="url(#clip0_132_27)">
<path fill-rule="evenodd" clip-rule="evenodd" d="M360.125 25C360.125 30.8016 362.43 36.3656 366.532 40.468C370.634 44.5703 376.198 46.875 382 46.875C387.802 46.875 393.366 44.5703 397.468 40.468C401.57 36.3656 403.875 30.8016 403.875 25C403.875 19.1984 401.57 13.6344 397.468 9.53204C393.366 5.42968 387.802 3.125 382 3.125C376.198 3.125 370.634 5.42968 366.532 9.53204C362.43 13.6344 360.125 19.1984 360.125 25V25ZM407 25C407 31.6304 404.366 37.9893 399.678 42.6777C394.989 47.3661 388.63 50 382 50C375.37 50 369.011 47.3661 364.322 42.6777C359.634 37.9893 357 31.6304 357 25C357 18.3696 359.634 12.0107 364.322 7.32233C369.011 2.63392 375.37 0 382 0C388.63 0 394.989 2.63392 399.678 7.32233C404.366 12.0107 407 18.3696 407 25V25ZM383.562 14.0625C383.562 13.6481 383.398 13.2507 383.105 12.9576C382.812 12.6646 382.414 12.5 382 12.5C381.586 12.5 381.188 12.6646 380.895 12.9576C380.602 13.2507 380.438 13.6481 380.438 14.0625V32.1656L373.731 25.4562C373.438 25.1629 373.04 24.998 372.625 24.998C372.21 24.998 371.812 25.1629 371.519 25.4562C371.225 25.7496 371.061 26.1476 371.061 26.5625C371.061 26.9774 371.225 27.3754 371.519 27.6688L380.894 37.0438C381.039 37.1893 381.211 37.3047 381.401 37.3835C381.591 37.4622 381.794 37.5028 382 37.5028C382.206 37.5028 382.409 37.4622 382.599 37.3835C382.789 37.3047 382.961 37.1893 383.106 37.0438L392.481 27.6688C392.775 27.3754 392.939 26.9774 392.939 26.5625C392.939 26.1476 392.775 25.7496 392.481 25.4562C392.188 25.1629 391.79 24.998 391.375 24.998C390.96 24.998 390.562 25.1629 390.269 25.4562L383.562 32.1656V14.0625Z" fill="#8D8B8B"/>
</g>
<path d="M27 24L327 24" stroke="#8D8B8B" stroke-width="2"/>
<defs>
<clipPath id="clip0_132_27">
<rect width="50" height="50" fill="white" transform="translate(357)"/>
</clipPath>
</defs>
</svg>
