<svg width="23" height="23" viewBox="0 0 23 23" fill="none" xmlns="http://www.w3.org/2000/svg">
<path fill-rule="evenodd" clip-rule="evenodd" d="M2.88926 2.82712C4.1459 1.43507 4.58997 1.04469 5.12547 0.862998C5.4961 0.760885 5.88475 0.755212 6.25786 0.846481C6.7491 0.996639 6.87904 1.11074 8.48984 2.79854C9.90501 4.28065 10.0464 4.44135 10.182 4.73112C10.4415 5.23986 10.4819 5.84077 10.2934 6.38291C10.1506 6.79583 9.94781 7.06913 9.08958 7.9746L8.52987 8.56472C8.3828 8.72178 8.34831 8.96036 8.44412 9.15636C9.68786 11.3875 11.4524 13.2482 13.5707 14.5621C13.8145 14.6994 14.1148 14.6551 14.3133 14.4525L14.8516 13.8954C15.1843 13.5368 15.5367 13.1988 15.9069 12.8834C16.4883 12.508 17.2128 12.4744 17.8232 12.7948C18.1217 12.9449 18.2203 13.038 19.6797 14.5696C21.1848 16.1478 21.2277 16.1973 21.3932 16.5592C21.705 17.1583 21.7018 17.8838 21.3847 18.4798C21.2234 18.8161 21.1248 18.9378 20.278 19.8478C19.7668 20.3973 19.2855 20.8989 19.2084 20.9725C18.5099 21.5807 17.6136 21.879 16.7094 21.8043C15.0551 21.6458 13.4539 21.1081 12.0184 20.2292C8.83845 18.4575 6.13135 15.8763 4.14444 12.7212C3.71168 12.0609 3.3269 11.3671 2.99346 10.646C2.09895 9.03379 1.63702 7.19666 1.65686 5.33028C1.72516 4.35385 2.17045 3.4494 2.88926 2.82712Z" stroke="#101010" stroke-width="1.45833" stroke-linecap="round" stroke-linejoin="round"/>
</svg>
