<svg width="40" height="40" viewBox="0 0 40 40" fill="none" xmlns="http://www.w3.org/2000/svg">
<path d="M11 14.4749C11 14.7301 11.0139 14.9871 11.0409 15.2453M11.0409 15.2453C11.8069 22.5741 23.1191 30.8898 26.5 28.4749C28.5042 26.6498 29.5876 25.6206 27.5 23.4749C25.158 20.7364 24.2419 20.6606 23 21.9749C22.2211 23.1793 21.6607 23.0998 20.5 21.9749L17 17.9749C16.6697 17.5047 17.5 16.9749 18.5 15.9749C19.168 14.902 18.8231 14.3824 18 13.4749C16.1575 11.3416 15.1362 10.3356 13.5 11.4749C11.8274 12.765 11.2241 13.5094 11.0409 15.2453Z" stroke="#84CC16" stroke-width="2"/>
<path fill-rule="evenodd" clip-rule="evenodd" d="M20 40C31.0457 40 40 31.0459 40 20C40 8.9541 31.0457 0 20 0C8.95435 0 0 8.9541 0 20C0 31.0459 8.95435 40 20 40ZM20 38C29.9412 38 38 29.9409 38 20C38 10.0591 29.9412 2 20 2C10.0588 2 2 10.0591 2 20C2 29.9409 10.0588 38 20 38Z" fill="white"/>
</svg>
