<svg width="946" height="102" viewBox="0 0 946 102" fill="none" xmlns="http://www.w3.org/2000/svg">
<g clip-path="url(#clip0_65_89)">
<mask id="mask0_65_89" style="mask-type:luminance" maskUnits="userSpaceOnUse" x="863" y="0" width="83" height="73">
<path d="M946 0H863V72.0659H946V0Z" fill="white"/>
</mask>
<g mask="url(#mask0_65_89)">
<path d="M876 13.0239C874.897 13.0239 874 13.803 874 14.7605C874 15.7179 874.897 16.497 876 16.497C877.103 16.497 878 15.7179 878 14.7605C878 13.803 877.103 13.0239 876 13.0239ZM876 15.3393C875.632 15.3393 875.333 15.0794 875.333 14.7605C875.333 14.4415 875.632 14.1816 876 14.1816C876.368 14.1816 876.667 14.4415 876.667 14.7605C876.667 15.0794 876.368 15.3393 876 15.3393Z" fill="#3F6212"/>
<path d="M934 16.497C935.103 16.497 936 15.7179 936 14.7605C936 13.803 935.103 13.0239 934 13.0239C932.897 13.0239 932 13.803 932 14.7605C932 15.7179 932.897 16.497 934 16.497ZM934 14.1816C934.368 14.1816 934.667 14.4415 934.667 14.7605C934.667 15.0794 934.368 15.3393 934 15.3393C933.632 15.3393 933.333 15.0794 933.333 14.7605C933.333 14.4415 933.632 14.1816 934 14.1816Z" fill="#3F6212"/>
<path d="M878 58.1735C878 57.2161 877.103 56.437 876 56.437C874.897 56.437 874 57.2161 874 58.1735C874 59.1309 874.897 59.9101 876 59.9101C877.103 59.9101 878 59.1309 878 58.1735ZM875.333 58.1735C875.333 57.8546 875.632 57.5947 876 57.5947C876.368 57.5947 876.667 57.8546 876.667 58.1735C876.667 58.4925 876.368 58.7524 876 58.7524C875.632 58.7524 875.333 58.4925 875.333 58.1735Z" fill="#3F6212"/>
<path d="M934 56.437C932.897 56.437 932 57.2161 932 58.1735C932 59.1309 932.897 59.9101 934 59.9101C935.103 59.9101 936 59.1309 936 58.1735C936 57.2161 935.103 56.437 934 56.437ZM934 58.7524C933.632 58.7524 933.333 58.4925 933.333 58.1735C933.333 57.8546 933.632 57.5947 934 57.5947C934.368 57.5947 934.667 57.8546 934.667 58.1735C934.667 58.4925 934.368 58.7524 934 58.7524Z" fill="#3F6212"/>
<path d="M918.35 29.2915L932.703 18.1213C933.196 18.2806 933.727 18.3722 934.284 18.3722C934.297 18.3722 934.309 18.3705 934.321 18.3705L942.281 27.2501C942.801 27.7439 943.489 28.0055 944.14 28.0055C944.54 28.0055 944.926 27.9066 945.251 27.7021C945.621 27.4688 946.718 26.5354 945.278 24.3279L942.676 20.3729C941.97 19.1468 941.231 17.9405 940.617 17.4286L938.595 15.6731C938.746 15.2799 938.832 14.8607 938.832 14.4233C938.832 12.2464 936.792 10.4751 934.284 10.4751C934.058 10.4751 933.837 10.4943 933.62 10.522L925.644 1.62427C924.803 0.827618 923.526 0.633256 922.673 1.1717C922.303 1.40505 921.206 2.33844 922.646 4.54592L925.246 8.49757C925.918 9.666 926.69 10.931 927.307 11.4452L929.827 13.6329C929.767 13.8888 929.736 14.1538 929.736 14.4245C929.736 14.4742 929.742 14.5222 929.744 14.5708L918.291 20.5955C917.302 17.5761 914.438 15.2353 910.858 14.6019V14.4313C910.858 14.394 910.854 14.3572 910.845 14.3205C910.554 13.0549 909.22 12.1712 907.604 12.1712H902.396C900.779 12.1712 899.446 13.0549 899.155 14.3205C899.146 14.3572 899.142 14.394 899.142 14.4313V14.6019C895.567 15.2347 892.705 17.5716 891.713 20.5977L880.868 14.8923C880.887 14.7431 880.9 14.5923 880.9 14.438C880.9 14.0064 880.817 13.5917 880.668 13.2024L882.684 11.4531C883.31 10.931 884.082 9.666 884.751 8.50039L887.356 4.54366C888.794 2.33844 887.698 1.40505 887.327 1.1717C886.473 0.632126 885.196 0.827618 884.323 1.65874L876.408 10.4926C876.389 10.4926 876.371 10.4903 876.351 10.4903C873.843 10.4903 871.803 12.2616 871.803 14.4386C871.803 14.7155 871.837 14.985 871.9 15.246L869.393 17.4218C868.769 17.9416 868.03 19.1485 867.326 20.3745L864.721 24.3313C863.282 26.5365 864.379 27.4699 864.749 27.7032C865.071 27.9061 865.453 28.0049 865.85 28.0049C866.508 28.0049 867.209 27.7343 867.753 27.2162L875.705 18.3422C875.917 18.3682 876.131 18.3863 876.351 18.3863C876.739 18.3863 877.114 18.3394 877.474 18.2597L891.65 29.2915L892.342 43.103L877.474 54.6732C877.114 54.5935 876.739 54.5466 876.351 54.5466C876.131 54.5466 875.916 54.5647 875.704 54.5913L867.72 45.6828C866.88 44.8856 865.603 44.6924 864.749 45.2303C864.379 45.4636 863.282 46.397 864.722 48.6045L867.324 52.5584C868.029 53.7845 868.768 54.9913 869.383 55.5038L871.9 57.6881C871.837 57.9485 871.803 58.2186 871.803 58.4955C871.803 60.6724 873.844 62.4437 876.351 62.4437C876.37 62.4437 876.389 62.4415 876.408 62.4415L884.357 71.3098C884.877 71.8036 885.565 72.0658 886.217 72.0658C886.616 72.0658 887.002 71.9669 887.327 71.7624C887.698 71.5285 888.794 70.5956 887.355 68.3881L884.754 64.4365C884.082 63.2681 883.31 62.003 882.693 61.4889L880.668 59.7311C880.817 59.3418 880.9 58.9271 880.9 58.4955C880.9 58.3418 880.887 58.1909 880.868 58.0412L893.355 51.4713C894.436 53.2946 896.621 54.5466 899.142 54.5466H910.858C913.381 54.5466 915.569 53.2912 916.649 51.473L929.118 58.0327C929.098 58.1847 929.084 58.3378 929.084 58.4943C929.084 58.93 929.169 59.3481 929.32 59.7402L927.316 61.4793C926.689 62.0013 925.918 63.2664 925.249 64.432L922.644 68.3887C921.205 70.5939 922.302 71.5273 922.672 71.7607C922.994 71.9635 923.376 72.0624 923.773 72.0624C924.431 72.0624 925.132 71.7917 925.676 71.2736L933.592 62.4403C933.605 62.4403 933.618 62.442 933.632 62.442C936.141 62.442 938.181 60.6707 938.181 58.4938C938.181 58.061 938.097 57.6451 937.948 57.2553L939.949 55.5185C940.573 54.9986 941.312 53.7918 942.016 52.5657L944.621 48.609C946.06 46.4038 944.963 45.4704 944.593 45.237C943.739 44.6975 942.462 44.893 941.589 45.7241L933.682 54.5483C933.665 54.5483 933.649 54.5461 933.633 54.5461C933.249 54.5461 932.878 54.5918 932.522 54.6698L917.658 43.1036L918.35 29.2915ZM939.706 18.2366C940.254 18.6931 941.167 20.2808 941.511 20.8785C941.516 20.8881 941.537 20.9254 941.544 20.9345L944.146 24.8878C944.821 25.9229 944.804 26.5885 944.485 26.7891C944.214 26.9597 943.65 26.8778 943.273 26.5229L935.772 18.1512C936.663 17.8823 937.426 17.3811 937.968 16.7297L939.706 18.2366ZM937.53 14.4245C937.53 15.9782 936.074 17.2427 934.284 17.2427C932.493 17.2427 931.037 15.9788 931.037 14.4245C931.037 12.8701 932.493 11.6062 934.283 11.6062C936.074 11.6062 937.53 12.8701 937.53 14.4245ZM928.218 10.6378C927.669 10.1807 926.755 8.59136 926.411 7.99302C926.405 7.98341 926.386 7.94951 926.379 7.94047L923.777 3.98713C923.102 2.95204 923.12 2.28646 923.438 2.08588C923.705 1.91525 924.271 1.99605 924.649 2.352L932.291 10.8802C931.469 11.2299 930.785 11.7865 930.333 12.4741L928.218 10.6378ZM930.006 15.7539C930.301 16.4664 930.824 17.0834 931.5 17.5399L918.428 27.7117L918.669 22.9063C918.669 22.5199 918.629 22.1424 918.571 21.7695L930.006 15.7539ZM902.396 13.3012H907.604C908.411 13.3012 909.306 13.6617 909.543 14.4595C909.332 14.4471 909.121 14.4313 908.905 14.4313H901.094C900.879 14.4313 900.668 14.4471 900.456 14.4595C900.694 13.6617 901.588 13.3012 902.396 13.3012ZM885.317 2.38647C885.728 1.99661 886.293 1.91582 886.562 2.08588C886.879 2.2859 886.898 2.95204 886.224 3.98487L883.62 7.93991C883.614 7.94895 883.594 7.98285 883.588 7.99245C883.245 8.59079 882.33 10.1807 881.772 10.6457L880.046 12.1441C879.506 11.491 878.744 10.9875 877.855 10.7163L885.317 2.38647ZM866.759 26.4879C866.347 26.8778 865.782 26.9586 865.514 26.7885C865.197 26.5885 865.178 25.9223 865.852 24.8895L868.456 20.9345C868.462 20.9254 868.484 20.8881 868.489 20.8785C868.833 20.2808 869.747 18.6931 870.304 18.2287L872.41 16.4003C872.865 17.0862 873.55 17.6411 874.373 17.988L866.759 26.4879ZM873.105 14.438C873.105 12.8843 874.561 11.6198 876.351 11.6198C878.141 11.6198 879.598 12.8837 879.598 14.438C879.598 15.9924 878.141 17.2563 876.351 17.2563C874.561 17.2563 873.105 15.9924 873.105 14.438ZM878.79 17.7654C879.544 17.3472 880.148 16.7438 880.512 16.0268L891.432 21.7718C891.372 22.1521 891.33 22.5368 891.331 22.9312L891.571 27.7117L878.79 17.7654ZM870.294 54.6964C869.746 54.2393 868.833 52.651 868.488 52.0533C868.483 52.0437 868.462 52.0075 868.456 51.9985L865.853 48.0451C865.178 47.01 865.197 46.3445 865.514 46.1439C865.782 45.9744 866.347 46.0546 866.726 46.4106L874.373 54.945C873.549 55.2924 872.864 55.8467 872.409 56.5326L870.294 54.6964ZM873.105 58.4949C873.105 56.9411 874.561 55.6767 876.351 55.6767C878.141 55.6767 879.598 56.9406 879.598 58.4949C879.598 60.0492 878.141 61.3131 876.351 61.3131C874.561 61.3131 873.105 60.0487 873.105 58.4949ZM881.782 62.2951C882.331 62.7522 883.245 64.3416 883.588 64.9399C883.594 64.9495 883.614 64.9834 883.62 64.9925L886.223 68.9458C886.898 69.9809 886.879 70.6465 886.562 70.847C886.293 71.016 885.729 70.9363 885.35 70.5809L877.856 62.2166C878.745 61.9448 879.507 61.442 880.047 60.7888L881.782 62.2951ZM880.512 56.9061C880.148 56.1891 879.544 55.5857 878.79 55.1676L892.415 44.5641L892.632 48.8966C892.632 49.4187 892.721 49.9226 892.874 50.4029L880.512 56.9061ZM899.935 53.4166L900.423 51.2939C900.635 50.5594 901.465 50.0266 902.396 50.0266H907.604C908.535 50.0266 909.364 50.5594 909.569 51.2673L910.064 53.4166H899.935ZM911.386 53.3935L910.838 51.0193C910.485 49.7893 909.123 48.8966 907.604 48.8966H902.396C900.876 48.8966 899.515 49.7893 899.155 51.0459L898.614 53.3935C895.99 53.1629 893.934 51.2329 893.934 48.8723L892.938 28.9994V28.9971L892.632 22.9063C892.632 22.4475 892.687 21.9995 892.781 21.5639V21.5628C893.511 18.1529 896.958 15.5613 901.094 15.5613H908.905C913.043 15.5613 916.49 18.1541 917.22 21.5475C917.221 21.5582 917.223 21.5678 917.225 21.5786C917.314 22.0023 917.367 22.4368 917.367 22.882L916.066 48.8966C916.066 51.234 914.011 53.1629 911.386 53.3935ZM924.683 70.5465C924.271 70.9363 923.705 71.0165 923.438 70.847C923.12 70.647 923.101 69.9809 923.776 68.9481L926.379 64.993C926.386 64.984 926.405 64.9501 926.411 64.9405C926.755 64.3421 927.669 62.7522 928.227 62.2872L929.944 60.7967C930.487 61.4493 931.25 61.951 932.141 62.2205L924.683 70.5465ZM933.632 61.3131C931.842 61.3131 930.386 60.0492 930.386 58.4949C930.386 56.9406 931.842 55.6767 933.632 55.6767C935.423 55.6767 936.879 56.9406 936.879 58.4949C936.879 60.0492 935.423 61.3131 933.632 61.3131ZM942.582 46.4529C942.994 46.0625 943.559 45.9823 943.827 46.1524C944.145 46.3524 944.164 47.0185 943.49 48.0513L940.886 52.0064C940.879 52.0154 940.858 52.0527 940.853 52.0623C940.509 52.6601 939.595 54.2478 939.038 54.7122L937.325 56.1987C936.784 55.545 936.021 55.0422 935.13 54.771L942.582 46.4529ZM931.203 55.1625C930.447 55.5795 929.842 56.1829 929.475 56.8999L917.128 50.4046C917.279 49.9305 917.367 49.435 917.367 48.9214L917.585 44.5647L931.203 55.1625Z" fill="#3F6212"/>
<path d="M910.786 19.1016H899.214C897.442 19.1016 896 20.3999 896 21.9958V26.6265C896 28.2224 897.442 29.5207 899.214 29.5207H910.786C912.558 29.5207 914 28.2224 914 26.6265V21.9958C914 20.3999 912.558 19.1016 910.786 19.1016ZM912.714 26.6265C912.714 27.5839 911.849 28.363 910.786 28.363H899.214C898.151 28.363 897.286 27.5839 897.286 26.6265V21.9958C897.286 21.0384 898.151 20.2592 899.214 20.2592H910.786C911.849 20.2592 912.714 21.0384 912.714 21.9958V26.6265Z" fill="#3F6212"/>
</g>
<mask id="mask1_65_89" style="mask-type:luminance" maskUnits="userSpaceOnUse" x="0" y="11" width="833" height="91">
<path d="M833 11.2871H0V101.587H833V11.2871Z" fill="white"/>
</mask>
<g mask="url(#mask1_65_89)">
<path d="M0 41.9373C46.0413 32.7324 93.5424 28.7176 140.707 29.8926C176.641 30.774 236.495 29.403 265.243 51.7297C280.178 63.3826 288.376 86.5906 267.264 97.1663C236.495 112.54 213.25 73.9584 245.816 58.5843C255.361 54.0798 266.478 52.8068 277.258 51.9255C329.364 47.6169 379.897 52.9048 431.89 55.8425C510.722 60.347 588.992 61.2283 667.374 51.5338C725.207 44.2875 781.916 40.1747 832 11.2871" stroke="#3F6212" stroke-width="2" stroke-miterlimit="10" stroke-dasharray="12 12"/>
</g>
</g>
<defs>
<clipPath id="clip0_65_89">
<rect width="946" height="102" fill="white"/>
</clipPath>
</defs>
</svg>
