<svg width="50" height="50" viewBox="0 0 78 78" fill="none" xmlns="http://www.w3.org/2000/svg">
<path d="M66.1172 29.7986C66.1172 29.7834 66.1172 29.7682 66.1172 29.7529V29.7377C66.1172 29.3111 65.9039 28.9303 65.5383 28.7018L39.6398 12.5686C39.6398 12.5686 39.6246 12.5686 39.6246 12.5533C39.5789 12.5229 39.5484 12.5076 39.5027 12.4924C39.5027 12.4924 39.4875 12.4924 39.4875 12.4771C39.4418 12.4619 39.3961 12.4467 39.3351 12.4314C39.3199 12.4314 39.3199 12.4314 39.3047 12.4314C39.259 12.4162 39.2285 12.4162 39.1828 12.401C39.1676 12.401 39.1523 12.401 39.1523 12.401C39.1066 12.401 39.0457 12.3857 39 12.3857C38.9543 12.3857 38.8933 12.3857 38.8476 12.401C38.8324 12.401 38.8172 12.401 38.8172 12.401C38.7715 12.401 38.741 12.4162 38.6953 12.4314C38.6801 12.4314 38.6801 12.4314 38.6648 12.4314C38.6191 12.4467 38.5734 12.4619 38.5125 12.4771C38.5125 12.4771 38.4972 12.4771 38.4972 12.4924C38.4515 12.5076 38.4211 12.5381 38.3754 12.5533C38.3754 12.5533 38.3601 12.5533 38.3601 12.5686L12.4617 28.7018C12.1113 28.9303 11.8828 29.3111 11.8828 29.7377V29.7529C11.8828 29.7682 11.8828 29.7834 11.8828 29.7986C11.898 30.149 11.8828 30.6822 11.8676 31.3525C11.8066 35.2373 11.6543 43.342 14.9297 51.6295C19.0125 61.9736 26.9801 69.0881 38.6344 72.7748C38.6953 72.79 38.741 72.8053 38.8019 72.8205C38.8172 72.8205 38.8324 72.8205 38.8324 72.8205C38.8933 72.8205 38.939 72.8357 39 72.8357C39.0609 72.8357 39.1066 72.8357 39.1676 72.8205C39.1828 72.8205 39.198 72.8205 39.198 72.8205C39.259 72.8053 39.3047 72.8053 39.3656 72.7748C51.0047 69.0881 58.9722 61.9736 63.0551 51.6295C66.3304 43.342 66.1933 35.2373 66.1172 31.3525C66.1172 30.6822 66.1172 30.149 66.1172 29.7986ZM37.7812 69.926C22.3488 64.4264 17.0015 53.1529 15.1887 43.8295H37.7812V69.926ZM63.2226 41.392H40.2187V15.7982L63.6797 30.408C63.6797 30.6975 63.6949 31.0174 63.6949 31.383C63.7406 33.6377 63.8015 37.233 63.2226 41.392Z" fill="#84CC16"/>
<path d="M75.2578 28.1988L61.5926 19.4238V9.90232C61.5926 9.0949 60.9375 8.42459 60.1149 8.42459H55.4531C54.6457 8.42459 53.9754 9.07967 53.9754 9.90232V14.5488L39.6551 5.36248C39.2742 5.11873 38.802 5.1035 38.4059 5.31678C38.3602 5.34725 38.2992 5.37771 38.2535 5.40818L2.74221 28.214C2.17853 28.5797 2.01096 29.3262 2.37658 29.9051C2.6051 30.2707 3.00119 30.4687 3.39728 30.4687C3.6258 30.4687 3.85431 30.4078 4.05236 30.2707L39 7.83045L73.9324 30.2555C74.4961 30.6211 75.2578 30.4535 75.6235 29.8898C75.9891 29.3262 75.8215 28.5644 75.2578 28.1988Z" fill="#84CC16"/>
</svg>
